<svg preserveAspectRatio="none" width="100%" height="100%" overflow="visible" style="display: block;" viewBox="0 0 10 10" fill="none" xmlns="http://www.w3.org/2000/svg">
<g id="Group">
<path id="Vector" d="M10 0C9.99945 0 9.99887 3.90625e-05 9.99832 3.90625e-05L10 0Z" fill="var(--fill-0, #F0F0F0)"/>
<path id="Vector_2" d="M9.97324 10H10C10 9.99094 10 9.98227 10 9.97324C9.99109 9.98219 9.98219 9.99109 9.97324 10Z" fill="var(--fill-0, #F0F0F0)"/>
<path id="Vector_3" d="M10 5.21742C10 3.45785 10 2.30484 10 3.90625e-05H9.99832C4.47625 0.0009375 0 4.47769 0 10H5.21738V7.06203L8.15535 10H9.97328C9.98223 9.99109 9.99113 9.98219 10 9.97324C10 9.29953 10 8.6984 10 8.15543L7.06203 5.21742H10Z" fill="var(--fill-0, #F0F0F0)"/>
</g>
</svg>
