<svg preserveAspectRatio="none" width="100%" height="100%" overflow="visible" style="display: block;" viewBox="0 0 20 19" fill="none" xmlns="http://www.w3.org/2000/svg">
<g id="Group">
<path id="Vector" d="M20 9.00773C20 5.04312 17.6928 1.6175 14.3478 0V18.0154C17.6928 16.398 20 12.9723 20 9.00773V9.00773Z" fill="var(--fill-0, #D80027)"/>
<path id="Vector_2" d="M0 9.00773C0 12.9723 2.30723 16.398 5.65219 18.0155V0C2.30723 1.6175 0 5.04312 0 9.00773Z" fill="var(--fill-0, #D80027)"/>
<path id="Vector_3" d="M11.7391 10.3121L13.4782 9.4425L12.6087 9.00773V8.13816L10.8696 9.00773L11.7391 7.26859H10.8696L10 5.96426L9.13043 7.26859H8.26086L9.13043 9.00773L7.39129 8.13816V9.00773L6.52176 9.4425L8.26086 10.3121L7.82609 11.1816H9.56523V12.486H10.4348V11.1816H12.1739L11.7391 10.3121Z" fill="var(--fill-0, #D80027)"/>
</g>
</svg>
