<svg preserveAspectRatio="none" width="100%" height="100%" overflow="visible" style="display: block;" viewBox="0 0 14 11" fill="none" xmlns="http://www.w3.org/2000/svg">
<g id="Group">
<path id="Vector" d="M3.65625 1.59766L4.51953 4.25391H7.3125L5.05469 5.89844L5.91797 8.55469L3.65625 6.91406L1.39453 8.55469L2.26172 5.89844L0 4.25391H2.79297L3.65625 1.59766Z" fill="var(--fill-0, #FFDA44)"/>
<path id="Vector_2" d="M10.0391 11L9.37891 10.1875L8.40234 10.5664L8.96875 9.6875L8.30859 8.87109L9.32031 9.14062L9.89062 8.26172L9.94531 9.30859L10.9609 9.57813L9.98047 9.95313L10.0391 11Z" fill="var(--fill-0, #FFDA44)"/>
<path id="Vector_3" d="M11.3516 8.61719L11.6641 7.61719L10.8086 7.01172L11.8555 6.99609L12.1641 5.99609L12.5039 6.98828L13.5508 6.97656L12.7109 7.60156L13.0469 8.59375L12.1914 7.98828L11.3516 8.61719Z" fill="var(--fill-0, #FFDA44)"/>
<path id="Vector_4" d="M13.1211 2.85156L12.6602 3.79297L13.4102 4.52344L12.375 4.375L11.9141 5.3125L11.7344 4.28125L10.6953 4.13281L11.625 3.64453L11.4453 2.60938L12.1953 3.33984L13.1211 2.85156Z" fill="var(--fill-0, #FFDA44)"/>
<path id="Vector_5" d="M10.0664 0L9.98828 1.04297L10.9609 1.4375L9.94141 1.6875L9.86719 2.73438L9.31641 1.84375L8.29688 2.09375L8.97266 1.29297L8.41797 0.40625L9.39062 0.800781L10.0664 0Z" fill="var(--fill-0, #FFDA44)"/>
</g>
</svg>
