<svg preserveAspectRatio="none" width="100%" height="100%" overflow="visible" style="display: block;" viewBox="0 0 20 20" fill="none" xmlns="http://www.w3.org/2000/svg">
<g id="Group">
<path id="Vector" d="M16.8955 2.85719C15.0919 1.09 12.6225 0 9.89797 0C9.0284 0 6.48414 1.09 4.68059 2.85719H16.8955Z" fill="var(--fill-0, #6DA544)"/>
<path id="Vector_2" d="M9.89797 8.57145H19.7959C19.6516 7.56266 19.357 6.6025 18.9351 5.7143H9.4632L9.89797 8.57145Z" fill="var(--fill-0, #6DA544)"/>
<path id="Vector_3" d="M0.860898 14.2857H18.935C19.357 13.3976 19.6516 12.4373 19.7959 11.4286H0C0.144336 12.4374 0.438906 13.3976 0.860898 14.2857V14.2857Z" fill="var(--fill-0, #6DA544)"/>
<path id="Vector_4" d="M2.90039 17.1428C4.70402 18.91 7.17348 20 9.89797 20C12.6225 20 15.0919 18.91 16.8955 17.1428H2.90039Z" fill="var(--fill-0, #6DA544)"/>
</g>
</svg>
