<svg preserveAspectRatio="none" width="100%" height="100%" overflow="visible" style="display: block;" viewBox="0 0 24 24" fill="none" xmlns="http://www.w3.org/2000/svg">
<g id="Group">
<path id="Vector" d="M23.9001 12.001V12.0356H20.0009V12.001C20.0009 11.7967 19.9932 11.5963 19.9759 11.3978C19.6977 7.54203 16.7195 4.43581 12.9297 3.9772H5.96592C6.73348 7.1104 8.39334 9.89097 10.6538 12.0337H5.92754C4.18324 9.68864 2.93019 6.95239 2.33533 3.9772C2.07819 2.69193 1.94387 1.36042 1.94387 0H11.9472C15.0366 0 17.8536 1.17736 19.974 3.10815C20.2753 3.3837 20.5631 3.67467 20.8337 3.9772C22.7392 6.10261 23.8982 8.91401 23.8982 12.001H23.9001Z" fill="var(--fill-0, #BAD133)"/>
<path id="Vector_2" d="M21.9543 24H11.9491C8.86157 24 6.04844 22.8227 3.92611 20.8938C3.62676 20.6163 3.33893 20.3273 3.06644 20.0247C1.16671 17.9051 0.00768711 15.1072 1.14444e-05 12.0357H3.89925C3.89925 12.2284 3.90693 12.4172 3.9242 12.6041C4.20628 16.4695 7.19211 19.5738 10.9896 20.0247H17.9361C17.1743 16.9243 15.5452 14.1707 13.3211 12.0357H18.0206C19.7437 14.3634 20.9718 17.0785 21.561 20.0247C21.8181 21.3081 21.9524 22.6377 21.9524 24H21.9543Z" fill="var(--fill-0, #BAD133)"/>
</g>
</svg>
