<svg preserveAspectRatio="none" width="100%" height="100%" overflow="visible" style="display: block;" viewBox="0 0 15 12" fill="none" xmlns="http://www.w3.org/2000/svg">
<g id="Group">
<path id="Vector" d="M2.2298 7.39133L2.77863 8.53891L4.01797 8.25246L3.46297 9.39707L4.45961 10.1874L3.21871 10.4671L3.22219 11.7391L2.2298 10.9433L1.23746 11.7391L1.24094 10.4671L0 10.1874L0.99668 9.39707L0.441602 8.25246L1.68102 8.53891L2.2298 7.39133Z" fill="var(--fill-0, #F0F0F0)"/>
<path id="Vector_2" d="M11.1708 9.56524L11.4452 10.139L12.0649 9.99578L11.7873 10.5681L12.2857 10.9633L11.6652 11.1031L11.667 11.7391L11.1708 11.3412L10.6746 11.7391L10.6763 11.1031L10.0559 10.9633L10.5542 10.5681L10.2767 9.99578L10.8964 10.139L11.1708 9.56524Z" fill="var(--fill-0, #F0F0F0)"/>
<path id="Vector_3" d="M8.61801 3.47828L8.89238 4.05211L9.51207 3.90883L9.23457 4.48113L9.73289 4.87633L9.11246 5.01617L9.11414 5.65219L8.61801 5.25426L8.12184 5.65219L8.12352 5.01617L7.50309 4.87633L8.00141 4.48113L7.72391 3.90883L8.34359 4.05211L8.61801 3.47828Z" fill="var(--fill-0, #F0F0F0)"/>
<path id="Vector_4" d="M11.1708 0L11.4452 0.573828L12.0649 0.430586L11.7874 1.00289L12.2857 1.39805L11.6652 1.53793L11.667 2.17395L11.1708 1.77602L10.6746 2.17395L10.6763 1.53793L10.0559 1.39805L10.5542 1.00289L10.2767 0.430586L10.8964 0.573828L11.1708 0Z" fill="var(--fill-0, #F0F0F0)"/>
<path id="Vector_5" d="M13.4006 2.60871L13.675 3.18254L14.2947 3.03926L14.0172 3.61156L14.5155 4.00676L13.895 4.14664L13.8968 4.78262L13.4006 4.38473L12.9045 4.78262L12.9061 4.14664L12.2857 4.00676L12.784 3.61156L12.5065 3.03926L13.1262 3.18254L13.4006 2.60871Z" fill="var(--fill-0, #F0F0F0)"/>
<path id="Vector_6" d="M11.8062 5.65219L12.022 6.31648H12.7205L12.1554 6.72707L12.3713 7.39133L11.8062 6.98078L11.2411 7.39133L11.4569 6.72707L10.8918 6.31648H11.5903L11.8062 5.65219Z" fill="var(--fill-0, #F0F0F0)"/>
</g>
</svg>
