<svg preserveAspectRatio="none" width="100%" height="100%" overflow="visible" style="display: block;" viewBox="0 0 1456 1092" fill="none" xmlns="http://www.w3.org/2000/svg">
<g id="svg bg image 2" clip-path="url(#clip0_7126_4340)">
<path id="Vector" d="M1456 0H0V1092H1456V0Z" fill="var(--fill-0, #181818)"/>
<path id="Vector_2" d="M1206.94 768.052C1204.02 768.052 1201.1 767.297 1198.49 765.792L1170.01 749.349C1168.36 748.396 1167.37 746.687 1167.37 744.78C1167.37 742.875 1168.36 741.167 1170.01 740.213L1198.49 723.77C1203.7 720.763 1210.18 720.761 1215.39 723.77L1243.87 740.213C1245.52 741.167 1246.51 742.875 1246.51 744.78C1246.51 746.687 1245.52 748.396 1243.87 749.349L1215.39 765.792C1212.78 767.297 1209.86 768.052 1206.94 768.052ZM1206.94 726.029C1204.8 726.029 1202.66 726.58 1200.75 727.682L1172.27 744.125C1171.94 744.316 1171.89 744.62 1171.89 744.78C1171.89 744.942 1171.94 745.246 1172.27 745.44L1200.75 761.883H1200.75C1204.57 764.086 1209.31 764.086 1213.13 761.883L1241.61 745.44C1241.94 745.248 1241.99 744.945 1241.99 744.78C1241.99 744.62 1241.94 744.316 1241.61 744.125L1213.13 727.682C1211.22 726.577 1209.08 726.029 1206.94 726.029Z" fill="url(#paint0_linear_7126_4340)"/>
<path id="Vector_3" d="M1125.48 674.745C1120.73 674.745 1115.99 673.524 1111.76 671.078L1062.74 642.778C1060.41 641.432 1059.02 639.022 1059.02 636.328C1059.02 633.635 1060.41 631.223 1062.74 629.878L1111.76 601.581C1120.22 596.691 1130.74 596.689 1139.2 601.581L1188.22 629.878C1190.55 631.225 1191.95 633.635 1191.95 636.326C1191.95 639.019 1190.55 641.432 1188.22 642.781L1139.21 671.078C1134.97 673.522 1130.23 674.745 1125.48 674.745ZM1114.02 667.169C1121.09 671.25 1129.87 671.25 1136.95 667.169L1185.96 638.871C1187.29 638.107 1187.43 636.838 1187.43 636.328C1187.43 635.819 1187.28 634.554 1185.96 633.788L1136.95 605.49C1129.87 601.409 1121.09 601.409 1114.01 605.49L1065 633.788C1063.68 634.552 1063.53 635.819 1063.53 636.328C1063.53 636.838 1063.68 638.105 1065 638.869L1114.02 667.169Z" fill="url(#paint1_linear_7126_4340)"/>
<path id="Vector_4" d="M248.915 719.279C244.169 719.279 239.425 718.058 235.193 715.612L186.174 687.315C183.84 685.966 182.449 683.554 182.449 680.86C182.449 678.169 183.842 675.757 186.174 674.412L235.188 646.115C243.65 641.223 254.172 641.223 262.636 646.115L311.65 674.415C313.984 675.761 315.377 678.171 315.377 680.865C315.377 683.558 313.984 685.97 311.65 687.315L262.638 715.612C258.409 718.056 253.66 719.279 248.915 719.279ZM248.913 646.964C244.948 646.964 240.983 647.986 237.445 650.027L188.431 678.324C187.108 679.088 186.965 680.355 186.965 680.865C186.965 681.374 187.108 682.641 188.433 683.408L237.447 711.705C244.523 715.787 253.305 715.787 260.381 711.705L309.393 683.408C310.718 682.643 310.859 681.377 310.859 680.867C310.859 680.358 310.715 679.093 309.393 678.326L260.379 650.027C256.841 647.983 252.876 646.964 248.913 646.964Z" fill="var(--fill-0, #252A09)"/>
<g id="Group">
<path id="Vector_5" opacity="0.6" d="M745.278 842.733L394.795 640.38C389.687 637.432 390.327 632.28 396.226 628.873L621.171 499C627.07 495.596 635.993 495.225 641.101 498.175L991.585 700.53C996.693 703.481 996.052 708.633 990.153 712.037L765.208 841.908C759.312 845.315 750.386 845.684 745.278 842.733Z" fill="var(--fill-0, #4A5313)"/>
<path id="Vector_6" d="M753.308 879.267C749.209 879.267 745.28 878.415 742.279 876.682H742.281L342.274 645.739C339.005 643.856 337.207 641.135 337.207 638.083C337.207 634.576 339.648 631.154 343.905 628.696L616.575 468.944C624.054 464.624 635.039 464.21 641.594 467.993L1041.6 698.939C1044.87 700.822 1046.67 703.544 1046.67 706.595C1046.67 710.101 1044.22 713.52 1039.97 715.979L767.297 875.731C763.243 878.073 758.159 879.267 753.308 879.267ZM630.618 469.941C626.522 469.941 622.168 470.929 618.846 472.844L346.179 632.596C343.386 634.21 341.726 636.258 341.726 638.078C341.726 639.837 343.252 641.087 344.531 641.827L744.538 872.77H744.54C749.646 875.724 759.032 875.292 765.024 871.826L1037.69 712.074C1040.49 710.46 1042.15 708.415 1042.15 706.592C1042.15 704.835 1040.62 703.586 1039.34 702.846L639.337 471.9C637.056 470.587 633.921 469.941 630.618 469.941Z" fill="var(--fill-0, #494949)"/>
<path id="Vector_7" d="M1084.69 361.284L735.591 159.728C733.191 158.342 730.686 158.056 728.466 158.704L728.464 158.706C728.454 158.709 728.442 158.713 728.432 158.716L721.967 160.968L724.243 161.507C723.331 162.586 722.596 163.926 722.113 165.498L643.164 421.83C641.208 428.185 644.074 435.909 649.563 439.078L998.668 640.635C999.517 641.125 1000.38 641.462 1001.24 641.683L1000.37 643.566L1006.55 641.397L1006.53 641.392C1009.06 640.385 1011.15 638.126 1012.15 634.862L1091.1 378.531C1093.05 372.175 1090.18 364.454 1084.69 361.284Z" fill="url(#paint2_radial_7126_4340)"/>
<path id="Vector_8" d="M986.168 650.205L986.292 650.353L641.467 451.269C636.396 448.34 627.533 448.709 621.678 452.09L398.888 580.717L391.46 577.881L393.547 588.303L393.557 588.298C393.833 589.866 394.93 591.334 396.901 592.472L744.914 793.398C749.986 796.327 758.848 795.958 764.703 792.578L988.061 663.622C990.818 662.03 992.402 660.057 992.795 658.106L992.807 658.121L994.938 647.977L986.168 650.205Z" fill="url(#paint3_radial_7126_4340)"/>
<path id="Vector_9" d="M745.278 784.225L394.795 581.873C389.687 578.924 390.327 573.772 396.226 570.365L621.171 440.495C627.07 437.09 635.993 436.719 641.101 439.67L991.585 642.022C996.693 644.971 996.052 650.125 990.153 653.53L765.208 783.4C759.312 786.805 750.386 787.176 745.278 784.225Z" fill="url(#paint4_radial_7126_4340)"/>
<path id="Vector_10" d="M990.153 650.8L765.209 780.67C759.309 784.077 750.387 784.446 745.278 781.498L394.795 579.145C393.055 578.14 392.033 576.871 391.609 575.51C390.932 577.859 391.922 580.215 394.795 581.873L745.281 784.225C750.389 787.174 759.312 786.805 765.211 783.4L990.156 653.53C994.046 651.285 995.596 648.288 994.774 645.658C994.245 647.485 992.735 649.31 990.153 650.8Z" fill="var(--fill-0, #F1F6D5)"/>
<g id="Group_2" opacity="0.4">
<path id="Vector_11" d="M561.969 549.035L550.137 542.204C549.186 541.656 549.307 540.697 550.404 540.064L564.369 532C565.466 531.367 567.126 531.299 568.077 531.847L579.91 538.678C580.861 539.227 580.74 540.185 579.643 540.819L565.675 548.883C564.58 549.516 562.92 549.584 561.969 549.035Z" fill="var(--fill-0, #252A09)"/>
<path id="Vector_12" d="M580.242 559.587L568.409 552.756C567.458 552.207 567.579 551.249 568.676 550.615L582.644 542.552C583.741 541.918 585.401 541.85 586.349 542.399L598.182 549.23C599.133 549.778 599.012 550.737 597.915 551.37L583.949 559.434C582.853 560.065 581.193 560.135 580.242 559.587Z" fill="var(--fill-0, #252A09)"/>
<path id="Vector_13" d="M598.518 570.136L586.685 563.305C585.736 562.756 585.855 561.798 586.952 561.165L600.92 553.101C602.017 552.467 603.677 552.4 604.625 552.948L616.458 559.779C617.407 560.327 617.288 561.286 616.191 561.919L602.223 569.983C601.126 570.616 599.466 570.684 598.518 570.136Z" fill="var(--fill-0, #252A09)"/>
<path id="Vector_14" d="M623.791 561.424L611.959 554.593C611.008 554.044 611.129 553.086 612.226 552.453L623.949 545.685C625.046 545.051 626.706 544.983 627.654 545.532L639.487 552.363C640.436 552.911 640.317 553.87 639.22 554.503L627.497 561.271C626.4 561.904 624.74 561.972 623.791 561.424Z" fill="var(--fill-0, #252A09)"/>
<path id="Vector_15" d="M642.063 571.975L630.231 565.144C629.28 564.596 629.401 563.637 630.498 563.004L642.224 556.236C643.321 555.603 644.98 555.535 645.929 556.083L657.762 562.914C658.713 563.463 658.592 564.421 657.495 565.055L645.769 571.823C644.672 572.453 643.012 572.524 642.063 571.975Z" fill="var(--fill-0, #252A09)"/>
<path id="Vector_16" d="M660.337 582.523L648.504 575.692C647.553 575.144 647.675 574.185 648.771 573.552L660.497 566.784C661.594 566.151 663.254 566.083 664.203 566.631L676.035 573.462C676.986 574.011 676.865 574.969 675.768 575.603L664.042 582.371C662.948 583.004 661.288 583.072 660.337 582.523Z" fill="var(--fill-0, #252A09)"/>
<path id="Vector_17" d="M678.609 593.075L666.777 586.244C665.826 585.695 665.947 584.737 667.044 584.103L678.767 577.335C679.864 576.702 681.524 576.634 682.473 577.183L694.305 584.014C695.256 584.562 695.135 585.521 694.038 586.154L682.315 592.922C681.22 593.553 679.561 593.623 678.609 593.075Z" fill="var(--fill-0, #252A09)"/>
<path id="Vector_18" d="M696.885 603.624L685.053 596.793C684.101 596.244 684.223 595.286 685.32 594.653L697.045 587.885C698.142 587.251 699.802 587.183 700.751 587.732L712.583 594.563C713.532 595.111 713.413 596.07 712.316 596.703L700.593 603.471C699.494 604.104 697.834 604.172 696.885 603.624Z" fill="var(--fill-0, #252A09)"/>
<path id="Vector_19" d="M715.157 614.174L703.325 607.343C702.374 606.795 702.495 605.836 703.592 605.203L715.315 598.435C716.412 597.802 718.072 597.734 719.021 598.282L730.853 605.113C731.802 605.662 731.683 606.62 730.586 607.253L718.863 614.021C717.766 614.655 716.106 614.723 715.157 614.174Z" fill="var(--fill-0, #252A09)"/>
<path id="Vector_20" d="M733.431 624.726L721.598 617.895C720.647 617.346 720.768 616.388 721.865 615.754L733.589 608.986C734.685 608.353 736.345 608.285 737.294 608.834L749.126 615.665C750.075 616.213 749.956 617.172 748.86 617.805L737.134 624.573C736.042 625.204 734.382 625.274 733.431 624.726Z" fill="var(--fill-0, #252A09)"/>
<path id="Vector_21" d="M751.703 635.275L739.871 628.444C738.922 627.895 739.041 626.937 740.138 626.304L751.863 619.536C752.96 618.902 754.62 618.834 755.569 619.383L767.401 626.214C768.353 626.762 768.231 627.721 767.134 628.354L755.409 635.122C754.314 635.755 752.655 635.823 751.703 635.275Z" fill="var(--fill-0, #252A09)"/>
<path id="Vector_22" d="M769.978 645.825L758.145 638.994C757.197 638.446 757.316 637.487 758.412 636.854L770.138 630.086C771.235 629.452 772.895 629.385 773.844 629.933L785.676 636.764C786.627 637.312 786.506 638.271 785.409 638.904L773.686 645.672C772.587 646.306 770.927 646.374 769.978 645.825Z" fill="var(--fill-0, #252A09)"/>
<path id="Vector_23" d="M788.251 656.374L776.419 649.543C775.468 648.995 775.589 648.036 776.686 647.403L788.409 640.635C789.506 640.002 791.166 639.934 792.114 640.482L803.947 647.313C804.896 647.862 804.777 648.82 803.68 649.454L791.954 656.224C790.86 656.855 789.2 656.923 788.251 656.374Z" fill="var(--fill-0, #252A09)"/>
<path id="Vector_24" d="M650.714 556.43L638.882 549.599C637.931 549.05 638.052 548.092 639.149 547.458L650.872 540.69C651.969 540.057 653.629 539.989 654.58 540.537L666.413 547.368C667.361 547.917 667.242 548.875 666.146 549.509L654.422 556.277C653.323 556.908 651.663 556.978 650.714 556.43Z" fill="var(--fill-0, #252A09)"/>
<path id="Vector_25" d="M632.167 545.721L620.335 538.89C619.386 538.341 619.505 537.383 620.602 536.749L632.325 529.979C633.422 529.345 635.082 529.278 636.033 529.826L647.866 536.657C648.817 537.205 648.695 538.164 647.599 538.797L635.875 545.565C634.778 546.201 633.119 546.269 632.167 545.721Z" fill="var(--fill-0, #252A09)"/>
<path id="Vector_26" d="M613.592 534.995L588.107 520.282C587.158 519.733 587.277 518.775 588.374 518.142L600.097 511.374C601.194 510.74 602.854 510.672 603.803 511.221L629.288 525.934C630.239 526.482 630.117 527.441 629.021 528.074L617.297 534.842C616.203 535.475 614.543 535.543 613.592 534.995Z" fill="var(--fill-0, #252A09)"/>
<path id="Vector_27" d="M626.577 521.952L605.895 510.01C604.943 509.462 605.065 508.503 606.161 507.87L617.885 501.099C618.982 500.466 620.641 500.398 621.59 500.946L642.273 512.888C643.221 513.436 643.103 514.395 642.006 515.028L630.282 521.796C629.186 522.432 627.526 522.502 626.577 521.952Z" fill="var(--fill-0, #252A09)"/>
<path id="Vector_28" d="M668.988 566.979L657.155 560.148C656.204 559.599 656.326 558.641 657.422 558.007L669.146 551.237C670.242 550.604 671.902 550.536 672.851 551.084L684.684 557.915C685.632 558.464 685.514 559.422 684.417 560.055L672.693 566.823C671.599 567.459 669.939 567.527 668.988 566.979Z" fill="var(--fill-0, #252A09)"/>
<path id="Vector_29" d="M687.26 577.529L675.428 570.698C674.479 570.15 674.598 569.191 675.695 568.558L687.418 561.787C688.515 561.154 690.175 561.086 691.124 561.634L702.956 568.465C703.907 569.014 703.786 569.972 702.689 570.606L690.963 577.374C689.871 578.01 688.212 578.077 687.26 577.529Z" fill="var(--fill-0, #252A09)"/>
<path id="Vector_30" d="M705.536 588.078L693.704 581.247C692.752 580.699 692.874 579.74 693.971 579.107L705.696 572.339C706.793 571.705 708.453 571.637 709.402 572.186L721.234 579.017C722.185 579.565 722.064 580.524 720.967 581.157L709.242 587.925C708.145 588.559 706.485 588.627 705.536 588.078Z" fill="var(--fill-0, #252A09)"/>
<path id="Vector_31" d="M723.808 598.63L711.976 591.799C711.025 591.25 711.146 590.292 712.243 589.658L723.968 582.89C725.065 582.257 726.725 582.189 727.674 582.737L739.506 589.568C740.455 590.117 740.336 591.075 739.239 591.709L727.516 598.477C726.417 599.11 724.757 599.178 723.808 598.63Z" fill="var(--fill-0, #252A09)"/>
<path id="Vector_32" d="M742.081 609.181L730.248 602.35C729.3 601.802 729.418 600.843 730.515 600.21L742.239 593.442C743.335 592.808 744.995 592.74 745.944 593.289L757.776 600.12C758.725 600.668 758.606 601.627 757.51 602.26L745.784 609.028C744.692 609.659 743.032 609.73 742.081 609.181Z" fill="var(--fill-0, #252A09)"/>
<path id="Vector_33" d="M760.354 619.729L748.522 612.898C747.57 612.35 747.692 611.391 748.789 610.758L760.514 603.99C761.611 603.356 763.271 603.288 764.22 603.837L776.052 610.668C777.003 611.216 776.882 612.175 775.785 612.808L764.06 619.576C762.965 620.21 761.305 620.277 760.354 619.729Z" fill="var(--fill-0, #252A09)"/>
<path id="Vector_34" d="M778.63 630.281L766.797 623.449C765.846 622.901 765.967 621.943 767.064 621.309L778.79 614.541C779.887 613.908 781.547 613.84 782.496 614.388L794.328 621.219C795.279 621.768 795.158 622.726 794.061 623.36L782.338 630.128C781.238 630.759 779.579 630.829 778.63 630.281Z" fill="var(--fill-0, #252A09)"/>
<path id="Vector_35" d="M796.902 640.83L785.07 633.999C784.118 633.45 784.24 632.492 785.337 631.858L797.062 625.09C798.159 624.457 799.819 624.389 800.768 624.937L812.6 631.769C813.551 632.317 813.43 633.276 812.333 633.909L800.61 640.677C799.513 641.31 797.853 641.381 796.902 640.83Z" fill="var(--fill-0, #252A09)"/>
<path id="Vector_36" d="M815.175 651.38L803.342 644.549C802.393 644 802.512 643.042 803.609 642.409L815.332 635.641C816.429 635.007 818.089 634.939 819.04 635.488L830.873 642.319C831.822 642.867 831.703 643.826 830.606 644.459L818.883 651.227C817.786 651.86 816.126 651.928 815.175 651.38Z" fill="var(--fill-0, #252A09)"/>
<path id="Vector_37" d="M847.66 670.137L821.843 655.23C820.894 654.681 821.013 653.723 822.11 653.089L833.836 646.319C834.933 645.686 836.592 645.618 837.541 646.166L863.359 661.073C864.31 661.622 864.188 662.58 863.092 663.213L851.368 669.981C850.271 670.617 848.612 670.685 847.66 670.137Z" fill="var(--fill-0, #252A09)"/>
<path id="Vector_38" d="M883.238 649.597L861.447 637.014C860.496 636.466 860.617 635.507 861.714 634.874L873.439 628.106C874.536 627.473 876.196 627.405 877.145 627.953L898.936 640.535C899.885 641.084 899.766 642.042 898.67 642.676L886.944 649.444C885.847 650.077 884.187 650.145 883.238 649.597Z" fill="var(--fill-0, #252A09)"/>
<path id="Vector_39" d="M700.988 564.916L689.156 558.085C688.205 557.536 688.326 556.578 689.423 555.944L701.146 549.176C702.243 548.543 703.903 548.475 704.854 549.024L716.686 555.855C717.638 556.403 717.516 557.362 716.42 557.995L704.696 564.763C703.599 565.394 701.94 565.464 700.988 564.916Z" fill="var(--fill-0, #252A09)"/>
<path id="Vector_40" d="M682.261 554.102L670.429 547.271C669.477 546.723 669.599 545.764 670.696 545.131L682.421 538.363C683.518 537.73 685.178 537.662 686.127 538.21L697.959 545.041C698.91 545.59 698.789 546.548 697.692 547.182L685.967 553.95C684.87 554.581 683.21 554.651 682.261 554.102Z" fill="var(--fill-0, #252A09)"/>
<path id="Vector_41" d="M663.533 543.289L651.7 536.458C650.749 535.91 650.87 534.951 651.967 534.318L663.693 527.55C664.79 526.916 666.449 526.848 667.398 527.397L679.231 534.228C680.182 534.776 680.061 535.735 678.964 536.368L667.241 543.136C666.141 543.77 664.484 543.837 663.533 543.289Z" fill="var(--fill-0, #252A09)"/>
<path id="Vector_42" d="M644.806 532.476L632.973 525.645C632.024 525.096 632.143 524.138 633.24 523.504L644.963 516.736C646.06 516.103 647.72 516.035 648.669 516.583L660.501 523.415C661.45 523.963 661.331 524.922 660.234 525.555L648.509 532.323C647.414 532.956 645.754 533.024 644.806 532.476Z" fill="var(--fill-0, #252A09)"/>
<path id="Vector_43" d="M719.263 575.465L707.431 568.634C706.479 568.085 706.601 567.127 707.698 566.494L719.423 559.723C720.52 559.09 722.18 559.022 723.129 559.57L734.961 566.401C735.912 566.95 735.791 567.908 734.694 568.542L722.969 575.312C721.872 575.945 720.212 576.013 719.263 575.465Z" fill="var(--fill-0, #252A09)"/>
<path id="Vector_44" d="M737.536 586.015L725.704 579.184C724.753 578.636 724.874 577.677 725.971 577.044L737.694 570.276C738.791 569.643 740.451 569.575 741.4 570.123L753.232 576.954C754.183 577.503 754.062 578.461 752.965 579.094L741.24 585.865C740.145 586.496 738.485 586.564 737.536 586.015Z" fill="var(--fill-0, #252A09)"/>
<path id="Vector_45" d="M755.809 596.564L743.976 589.733C743.025 589.185 743.146 588.226 744.243 587.593L755.966 580.823C757.063 580.189 758.723 580.121 759.674 580.67L771.507 587.501C772.456 588.049 772.337 589.008 771.24 589.641L759.517 596.409C758.417 597.045 756.76 597.113 755.809 596.564Z" fill="var(--fill-0, #252A09)"/>
<path id="Vector_46" d="M774.082 607.116L762.25 600.285C761.299 599.736 761.42 598.778 762.517 598.145L774.24 591.374C775.337 590.741 776.997 590.673 777.945 591.221L789.778 598.052C790.729 598.601 790.608 599.559 789.511 600.193L777.788 606.963C776.693 607.596 775.033 607.664 774.082 607.116Z" fill="var(--fill-0, #252A09)"/>
<path id="Vector_47" d="M792.357 617.666L780.524 610.835C779.573 610.287 779.695 609.328 780.791 608.695L792.515 601.927C793.611 601.293 795.271 601.226 796.22 601.774L808.053 608.605C809.004 609.153 808.882 610.112 807.786 610.745L796.06 617.516C794.966 618.144 793.306 618.215 792.357 617.666Z" fill="var(--fill-0, #252A09)"/>
<path id="Vector_48" d="M810.63 628.215L798.798 621.384C797.847 620.836 797.968 619.877 799.065 619.244L810.791 612.474C811.887 611.84 813.547 611.772 814.496 612.321L826.328 619.152C827.28 619.7 827.158 620.659 826.062 621.292L814.336 628.06C813.239 628.696 811.579 628.764 810.63 628.215Z" fill="var(--fill-0, #252A09)"/>
<path id="Vector_49" d="M828.903 638.767L817.07 631.936C816.122 631.387 816.241 630.429 817.337 629.795L829.063 623.027C830.16 622.394 831.82 622.326 832.769 622.875L844.601 629.706C845.55 630.254 845.431 631.213 844.334 631.846L832.611 638.614C831.514 639.247 829.854 639.315 828.903 638.767Z" fill="var(--fill-0, #252A09)"/>
<path id="Vector_50" d="M847.177 649.315L835.345 642.484C834.396 641.935 834.515 640.977 835.612 640.343L847.338 633.575C848.435 632.942 850.094 632.874 851.043 633.423L862.876 640.254C863.824 640.802 863.706 641.761 862.609 642.394L850.883 649.162C849.786 649.795 848.126 649.863 847.177 649.315Z" fill="var(--fill-0, #252A09)"/>
<path id="Vector_51" d="M865.451 659.866L853.618 653.035C852.667 652.487 852.788 651.528 853.885 650.895L865.608 644.127C866.705 643.494 868.365 643.426 869.314 643.974L881.146 650.805C882.098 651.353 881.979 652.312 880.879 652.945L869.154 659.716C868.059 660.347 866.4 660.415 865.451 659.866Z" fill="var(--fill-0, #252A09)"/>
<path id="Vector_52" d="M691.367 538.82L679.535 531.989C678.583 531.44 678.705 530.482 679.802 529.848L691.525 523.08C692.622 522.447 694.281 522.379 695.233 522.927L707.065 529.759C708.016 530.307 707.895 531.265 706.798 531.899L695.075 538.667C693.976 539.3 692.318 539.368 691.367 538.82Z" fill="var(--fill-0, #252A09)"/>
<path id="Vector_53" d="M673.184 528.322L661.351 521.49C660.403 520.942 660.521 519.984 661.618 519.35L673.342 512.58C674.438 511.946 676.098 511.878 677.049 512.427L688.882 519.258C689.833 519.806 689.712 520.765 688.615 521.398L676.892 528.166C675.795 528.802 674.135 528.87 673.184 528.322Z" fill="var(--fill-0, #252A09)"/>
<path id="Vector_54" d="M655.003 517.823L643.17 510.992C642.221 510.444 642.34 509.485 643.437 508.852L655.16 502.082C656.257 501.448 657.917 501.38 658.866 501.929L670.698 508.76C671.647 509.308 671.528 510.267 670.432 510.9L658.708 517.67C657.611 518.304 655.952 518.372 655.003 517.823Z" fill="var(--fill-0, #252A09)"/>
<path id="Vector_55" d="M636.819 507.326L624.987 500.495C624.038 499.947 624.157 498.988 625.254 498.355L636.977 491.587C638.074 490.954 639.734 490.886 640.683 491.434L652.515 498.265C653.466 498.814 653.347 499.772 652.248 500.405L640.525 507.173C639.428 507.807 637.768 507.875 636.819 507.326Z" fill="var(--fill-0, #252A09)"/>
<path id="Vector_56" d="M655.517 496.532L643.684 489.701C642.733 489.153 642.854 488.194 643.951 487.561L647.827 485.324C648.924 484.69 650.583 484.622 651.532 485.171L663.365 492.002C664.316 492.55 664.195 493.509 663.098 494.142L659.222 496.38C658.125 497.01 656.466 497.081 655.517 496.532Z" fill="var(--fill-0, #252A09)"/>
<path id="Vector_57" d="M679.246 510.231L667.413 503.4C666.464 502.851 666.583 501.893 667.68 501.26L671.556 499.022C672.652 498.389 674.312 498.321 675.261 498.869L687.094 505.7C688.045 506.249 687.923 507.207 686.827 507.841L682.951 510.078C681.854 510.711 680.195 510.779 679.246 510.231Z" fill="var(--fill-0, #252A09)"/>
<path id="Vector_58" d="M697.351 520.685L685.518 513.854C684.567 513.306 684.688 512.347 685.785 511.714L689.661 509.477C690.757 508.843 692.417 508.775 693.369 509.324L705.201 516.155C706.15 516.703 706.031 517.662 704.934 518.295L701.059 520.532C699.962 521.166 698.302 521.234 697.351 520.685Z" fill="var(--fill-0, #252A09)"/>
<path id="Vector_59" d="M715.458 531.14L703.626 524.309C702.677 523.76 702.796 522.802 703.893 522.168L707.768 519.931C708.865 519.298 710.525 519.23 711.474 519.778L723.306 526.609C724.258 527.157 724.136 528.116 723.039 528.749L719.164 530.987C718.067 531.62 716.407 531.688 715.458 531.14Z" fill="var(--fill-0, #252A09)"/>
<path id="Vector_60" d="M733.564 541.593L721.731 534.762C720.782 534.213 720.901 533.255 721.998 532.621L725.874 530.384C726.97 529.751 728.63 529.683 729.579 530.231L741.412 537.062C742.363 537.611 742.241 538.569 741.145 539.203L737.269 541.44C736.175 542.073 734.515 542.141 733.564 541.593Z" fill="var(--fill-0, #252A09)"/>
<path id="Vector_61" d="M834.652 599.957L822.82 593.126C821.871 592.578 821.99 591.619 823.086 590.986L826.962 588.748C828.059 588.115 829.719 588.047 830.667 588.596L842.5 595.427C843.451 595.975 843.33 596.934 842.233 597.567L838.357 599.804C837.263 600.435 835.603 600.506 834.652 599.957Z" fill="var(--fill-0, #252A09)"/>
<path id="Vector_62" d="M852.759 610.408L840.927 603.577C839.976 603.028 840.097 602.07 841.194 601.437L845.069 599.199C846.166 598.566 847.826 598.498 848.777 599.046L860.61 605.877C861.561 606.426 861.439 607.384 860.343 608.018L856.467 610.255C855.368 610.888 853.708 610.959 852.759 610.408Z" fill="var(--fill-0, #252A09)"/>
<path id="Vector_63" d="M870.867 620.862L859.034 614.031C858.083 613.483 858.205 612.524 859.301 611.891L863.177 609.654C864.274 609.02 865.933 608.952 866.882 609.501L878.715 616.332C879.664 616.88 879.545 617.839 878.448 618.472L874.572 620.709C873.476 621.343 871.816 621.413 870.867 620.862Z" fill="var(--fill-0, #252A09)"/>
<path id="Vector_64" d="M888.972 631.317L877.14 624.486C876.188 623.937 876.31 622.979 877.407 622.345L881.282 620.108C882.379 619.475 884.039 619.407 884.987 619.955L896.82 626.786C897.771 627.334 897.65 628.293 896.553 628.926L892.678 631.164C891.581 631.797 889.923 631.865 888.972 631.317Z" fill="var(--fill-0, #252A09)"/>
<path id="Vector_65" d="M709.639 549.371L697.807 542.54C696.858 541.992 696.977 541.033 698.074 540.4L709.797 533.632C710.894 532.998 712.554 532.931 713.503 533.479L725.335 540.31C726.284 540.858 726.165 541.817 725.068 542.45L713.345 549.218C712.251 549.849 710.591 549.92 709.639 549.371Z" fill="var(--fill-0, #252A09)"/>
<path id="Vector_66" d="M727.914 559.919L716.082 553.088C715.13 552.54 715.252 551.581 716.348 550.948L728.072 544.18C729.169 543.546 730.828 543.478 731.777 544.027L743.61 550.858C744.561 551.406 744.44 552.365 743.343 552.998L731.619 559.766C730.523 560.4 728.863 560.467 727.914 559.919Z" fill="var(--fill-0, #252A09)"/>
<path id="Vector_67" d="M746.187 570.471L734.355 563.64C733.404 563.091 733.525 562.133 734.622 561.499L746.345 554.731C747.442 554.098 749.102 554.03 750.051 554.578L761.883 561.409C762.834 561.958 762.713 562.916 761.616 563.55L749.89 570.32C748.796 570.951 747.139 571.019 746.187 570.471Z" fill="var(--fill-0, #252A09)"/>
<path id="Vector_68" d="M764.46 581.022L752.627 574.191C751.676 573.643 751.797 572.684 752.894 572.051L764.62 565.283C765.717 564.649 767.377 564.581 768.325 565.13L780.158 571.961C781.109 572.509 780.988 573.468 779.891 574.101L768.168 580.869C767.071 581.5 765.411 581.571 764.46 581.022Z" fill="var(--fill-0, #252A09)"/>
<path id="Vector_69" d="M782.736 591.57L770.903 584.739C769.954 584.191 770.073 583.232 771.17 582.599L782.896 575.831C783.993 575.197 785.653 575.129 786.601 575.678L798.434 582.509C799.383 583.057 799.264 584.016 798.167 584.649L786.444 591.42C785.344 592.05 783.685 592.118 782.736 591.57Z" fill="var(--fill-0, #252A09)"/>
<path id="Vector_70" d="M801.008 602.122L789.175 595.29C788.224 594.742 788.345 593.783 789.442 593.15L801.168 586.382C802.265 585.749 803.925 585.681 804.873 586.229L816.706 593.06C817.655 593.609 817.536 594.567 816.439 595.201L804.713 601.971C803.616 602.6 801.957 602.67 801.008 602.122Z" fill="var(--fill-0, #252A09)"/>
<path id="Vector_71" d="M819.281 612.671L807.449 605.84C806.498 605.291 806.619 604.333 807.716 603.699L819.441 596.931C820.538 596.298 822.198 596.23 823.147 596.778L834.979 603.609C835.931 604.158 835.809 605.116 834.712 605.75L822.987 612.518C821.89 613.151 820.233 613.219 819.281 612.671Z" fill="var(--fill-0, #252A09)"/>
<path id="Vector_72" d="M837.554 623.221L825.721 616.39C824.77 615.841 824.891 614.883 825.988 614.25L837.711 607.482C838.808 606.848 840.468 606.78 841.417 607.329L853.249 614.16C854.201 614.708 854.079 615.667 852.982 616.3L841.259 623.071C840.165 623.701 838.505 623.769 837.554 623.221Z" fill="var(--fill-0, #252A09)"/>
<path id="Vector_73" d="M855.828 633.77L843.996 626.939C843.047 626.391 843.166 625.432 844.263 624.799L855.989 618.031C857.085 617.397 858.745 617.329 859.694 617.878L871.526 624.709C872.478 625.257 872.356 626.216 871.26 626.849L859.536 633.617C858.437 634.251 856.777 634.321 855.828 633.77Z" fill="var(--fill-0, #252A09)"/>
<path id="Vector_74" d="M605.169 550.671L570.319 530.551C569.371 530.003 569.489 529.044 570.586 528.411L582.31 521.643C583.406 521.01 585.066 520.942 586.017 521.49L620.867 541.61C621.816 542.158 621.697 543.117 620.6 543.75L608.874 550.518C607.777 551.151 606.118 551.222 605.169 550.671Z" fill="var(--fill-0, #252A09)"/>
<path id="Vector_75" d="M829.663 680.284L794.813 660.165C793.864 659.616 793.983 658.658 795.08 658.024L806.806 651.256C807.903 650.623 809.563 650.555 810.511 651.104L845.361 671.223C846.312 671.771 846.191 672.73 845.094 673.363L833.368 680.131C832.271 680.762 830.612 680.833 829.663 680.284Z" fill="var(--fill-0, #252A09)"/>
<path id="Vector_76" d="M756.584 661.396L744.751 654.564C743.8 654.016 743.921 653.057 745.018 652.424L758.986 644.36C760.083 643.727 761.743 643.659 762.692 644.207L774.524 651.039C775.473 651.587 775.354 652.545 774.257 653.179L760.289 661.243C759.195 661.876 757.535 661.946 756.584 661.396Z" fill="var(--fill-0, #252A09)"/>
<path id="Vector_77" d="M623.881 584.78L604.957 573.855C604.009 573.307 604.128 572.348 605.224 571.715L619.192 563.651C620.289 563.018 621.949 562.95 622.898 563.498L641.821 574.423C642.772 574.972 642.651 575.93 641.554 576.563L627.586 584.627C626.492 585.261 624.832 585.329 623.881 584.78Z" fill="var(--fill-0, #252A09)"/>
<path id="Vector_78" d="M738.978 651.233L720.054 640.308C719.103 639.759 719.224 638.801 720.321 638.167L734.289 630.104C735.386 629.47 737.046 629.402 737.995 629.951L756.918 640.876C757.867 641.424 757.748 642.383 756.651 643.016L742.686 651.08C741.586 651.711 739.926 651.781 738.978 651.233Z" fill="var(--fill-0, #252A09)"/>
<path id="Vector_79" d="M650.247 600.003L631.324 589.078C630.375 588.529 630.494 587.571 631.591 586.937L645.559 578.874C646.655 578.24 648.315 578.172 649.264 578.721L668.187 589.645C669.138 590.194 669.017 591.152 667.92 591.786L653.952 599.85C652.855 600.481 651.196 600.551 650.247 600.003Z" fill="var(--fill-0, #252A09)"/>
<path id="Vector_80" d="M649.39 578.794L731.666 626.296C732.688 626.886 732.688 627.842 731.666 628.432L717.424 636.653C716.403 637.243 714.748 637.243 713.726 636.653L631.45 589.151L649.39 578.794Z" fill="var(--fill-0, #252A09)"/>
<path id="Vector_81" d="M807.655 680.525L820.837 688.135C821.616 688.584 821.519 689.37 820.618 689.889L814.903 693.187C814.006 693.706 812.644 693.762 811.865 693.313L798.686 685.703C797.907 685.254 798.004 684.468 798.904 683.949L804.617 680.651C805.517 680.132 806.876 680.076 807.655 680.525Z" fill="var(--fill-0, #252A09)"/>
<path id="Vector_82" d="M789.229 669.886L802.41 677.496C803.189 677.945 803.092 678.731 802.192 679.25L796.48 682.548C795.579 683.067 794.22 683.123 793.441 682.674L780.262 675.064C779.483 674.615 779.58 673.829 780.481 673.31L786.193 670.012C787.091 669.495 788.45 669.437 789.229 669.886Z" fill="var(--fill-0, #252A09)"/>
<path id="Vector_83" d="M770.956 659.337L784.138 666.948C784.917 667.397 784.82 668.183 783.92 668.702L778.207 672C777.307 672.519 775.948 672.575 775.169 672.126L761.987 664.516C761.209 664.067 761.306 663.281 762.206 662.762L767.918 659.464C768.819 658.944 770.177 658.889 770.956 659.337Z" fill="var(--fill-0, #252A09)"/>
<path id="Vector_84" d="M799.322 664.063L812.501 671.673C813.28 672.122 813.183 672.908 812.283 673.427L806.568 676.725C805.67 677.244 804.309 677.3 803.53 676.851L790.348 669.241C789.569 668.792 789.666 668.006 790.566 667.487L796.281 664.189C797.181 663.67 798.543 663.611 799.322 664.063Z" fill="var(--fill-0, #252A09)"/>
</g>
<g id="Group_3" opacity="0.4">
<path id="Vector_85" d="M561.969 549.035L550.137 542.204C549.186 541.656 549.307 540.697 550.404 540.064L564.369 532C565.466 531.367 567.126 531.299 568.077 531.847L579.91 538.678C580.861 539.227 580.74 540.185 579.643 540.819L565.675 548.883C564.58 549.516 562.92 549.584 561.969 549.035Z" fill="var(--fill-0, #252A09)"/>
<path id="Vector_86" d="M580.242 559.587L568.409 552.756C567.458 552.207 567.579 551.249 568.676 550.615L582.644 542.552C583.741 541.918 585.401 541.85 586.349 542.399L598.182 549.23C599.133 549.778 599.012 550.737 597.915 551.37L583.949 559.434C582.853 560.065 581.193 560.135 580.242 559.587Z" fill="var(--fill-0, #252A09)"/>
<path id="Vector_87" d="M598.518 570.136L586.685 563.305C585.736 562.756 585.855 561.798 586.952 561.165L600.92 553.101C602.017 552.467 603.677 552.4 604.625 552.948L616.458 559.779C617.407 560.327 617.288 561.286 616.191 561.919L602.223 569.983C601.126 570.616 599.466 570.684 598.518 570.136Z" fill="var(--fill-0, #252A09)"/>
<path id="Vector_88" d="M623.791 561.424L611.959 554.593C611.008 554.044 611.129 553.086 612.226 552.453L623.949 545.685C625.046 545.051 626.706 544.983 627.654 545.532L639.487 552.363C640.436 552.911 640.317 553.87 639.22 554.503L627.497 561.271C626.4 561.904 624.74 561.972 623.791 561.424Z" fill="var(--fill-0, #252A09)"/>
<path id="Vector_89" d="M642.063 571.975L630.231 565.144C629.28 564.596 629.401 563.637 630.498 563.004L642.224 556.236C643.321 555.603 644.98 555.535 645.929 556.083L657.762 562.914C658.713 563.463 658.592 564.421 657.495 565.055L645.769 571.823C644.672 572.453 643.012 572.524 642.063 571.975Z" fill="var(--fill-0, #252A09)"/>
<path id="Vector_90" d="M660.337 582.523L648.504 575.692C647.553 575.144 647.675 574.185 648.771 573.552L660.497 566.784C661.594 566.151 663.254 566.083 664.203 566.631L676.035 573.462C676.986 574.011 676.865 574.969 675.768 575.603L664.042 582.371C662.948 583.004 661.288 583.072 660.337 582.523Z" fill="var(--fill-0, #252A09)"/>
<path id="Vector_91" d="M678.609 593.075L666.777 586.244C665.826 585.695 665.947 584.737 667.044 584.103L678.767 577.335C679.864 576.702 681.524 576.634 682.473 577.183L694.305 584.014C695.256 584.562 695.135 585.521 694.038 586.154L682.315 592.922C681.22 593.553 679.561 593.623 678.609 593.075Z" fill="var(--fill-0, #252A09)"/>
<path id="Vector_92" d="M696.885 603.624L685.053 596.793C684.101 596.244 684.223 595.286 685.32 594.653L697.045 587.885C698.142 587.251 699.802 587.183 700.751 587.732L712.583 594.563C713.532 595.111 713.413 596.07 712.316 596.703L700.593 603.471C699.494 604.104 697.834 604.172 696.885 603.624Z" fill="var(--fill-0, #252A09)"/>
<path id="Vector_93" d="M715.157 614.174L703.325 607.343C702.374 606.795 702.495 605.836 703.592 605.203L715.315 598.435C716.412 597.802 718.072 597.734 719.021 598.282L730.853 605.113C731.802 605.662 731.683 606.62 730.586 607.253L718.863 614.021C717.766 614.655 716.106 614.723 715.157 614.174Z" fill="var(--fill-0, #252A09)"/>
<path id="Vector_94" d="M733.431 624.726L721.598 617.895C720.647 617.346 720.768 616.388 721.865 615.754L733.589 608.986C734.685 608.353 736.345 608.285 737.294 608.834L749.126 615.665C750.075 616.213 749.956 617.172 748.86 617.805L737.134 624.573C736.042 625.204 734.382 625.274 733.431 624.726Z" fill="var(--fill-0, #252A09)"/>
<path id="Vector_95" d="M751.703 635.275L739.871 628.444C738.922 627.895 739.041 626.937 740.138 626.304L751.863 619.536C752.96 618.902 754.62 618.834 755.569 619.383L767.401 626.214C768.353 626.762 768.231 627.721 767.134 628.354L755.409 635.122C754.314 635.755 752.655 635.823 751.703 635.275Z" fill="var(--fill-0, #252A09)"/>
<path id="Vector_96" d="M769.978 645.825L758.145 638.994C757.197 638.446 757.316 637.487 758.412 636.854L770.138 630.086C771.235 629.452 772.895 629.385 773.844 629.933L785.676 636.764C786.627 637.312 786.506 638.271 785.409 638.904L773.686 645.672C772.587 646.306 770.927 646.374 769.978 645.825Z" fill="var(--fill-0, #252A09)"/>
<path id="Vector_97" d="M788.251 656.374L776.419 649.543C775.468 648.995 775.589 648.036 776.686 647.403L788.409 640.635C789.506 640.002 791.166 639.934 792.114 640.482L803.947 647.313C804.896 647.862 804.777 648.82 803.68 649.454L791.954 656.224C790.86 656.855 789.2 656.923 788.251 656.374Z" fill="var(--fill-0, #252A09)"/>
<path id="Vector_98" d="M650.714 556.43L638.882 549.599C637.931 549.05 638.052 548.092 639.149 547.458L650.872 540.69C651.969 540.057 653.629 539.989 654.58 540.537L666.413 547.368C667.361 547.917 667.242 548.875 666.146 549.509L654.422 556.277C653.323 556.908 651.663 556.978 650.714 556.43Z" fill="var(--fill-0, #252A09)"/>
<path id="Vector_99" d="M632.167 545.721L620.335 538.89C619.386 538.341 619.505 537.383 620.602 536.749L632.325 529.979C633.422 529.345 635.082 529.278 636.033 529.826L647.866 536.657C648.817 537.205 648.695 538.164 647.599 538.797L635.875 545.565C634.778 546.201 633.119 546.269 632.167 545.721Z" fill="var(--fill-0, #252A09)"/>
<path id="Vector_100" d="M613.592 534.995L588.107 520.282C587.158 519.733 587.277 518.775 588.374 518.142L600.097 511.374C601.194 510.74 602.854 510.672 603.803 511.221L629.288 525.934C630.239 526.482 630.117 527.441 629.021 528.074L617.297 534.842C616.203 535.475 614.543 535.543 613.592 534.995Z" fill="var(--fill-0, #252A09)"/>
<path id="Vector_101" d="M626.577 521.952L605.895 510.01C604.943 509.462 605.065 508.503 606.161 507.87L617.885 501.099C618.982 500.466 620.641 500.398 621.59 500.946L642.273 512.888C643.221 513.436 643.103 514.395 642.006 515.028L630.282 521.796C629.186 522.432 627.526 522.502 626.577 521.952Z" fill="var(--fill-0, #252A09)"/>
<path id="Vector_102" d="M668.988 566.979L657.155 560.148C656.204 559.599 656.326 558.641 657.422 558.007L669.146 551.237C670.242 550.604 671.902 550.536 672.851 551.084L684.684 557.915C685.632 558.464 685.514 559.422 684.417 560.055L672.693 566.823C671.599 567.459 669.939 567.527 668.988 566.979Z" fill="var(--fill-0, #252A09)"/>
<path id="Vector_103" d="M687.26 577.529L675.428 570.698C674.479 570.15 674.598 569.191 675.695 568.558L687.418 561.787C688.515 561.154 690.175 561.086 691.124 561.634L702.956 568.465C703.907 569.014 703.786 569.972 702.689 570.606L690.963 577.374C689.871 578.01 688.212 578.077 687.26 577.529Z" fill="var(--fill-0, #252A09)"/>
<path id="Vector_104" d="M705.536 588.078L693.704 581.247C692.752 580.699 692.874 579.74 693.971 579.107L705.696 572.339C706.793 571.705 708.453 571.637 709.402 572.186L721.234 579.017C722.185 579.565 722.064 580.524 720.967 581.157L709.242 587.925C708.145 588.559 706.485 588.627 705.536 588.078Z" fill="var(--fill-0, #252A09)"/>
<path id="Vector_105" d="M723.808 598.63L711.976 591.799C711.025 591.25 711.146 590.292 712.243 589.658L723.968 582.89C725.065 582.257 726.725 582.189 727.674 582.737L739.506 589.568C740.455 590.117 740.336 591.075 739.239 591.709L727.516 598.477C726.417 599.11 724.757 599.178 723.808 598.63Z" fill="var(--fill-0, #252A09)"/>
<path id="Vector_106" d="M742.081 609.181L730.248 602.35C729.3 601.802 729.418 600.843 730.515 600.21L742.239 593.442C743.335 592.808 744.995 592.74 745.944 593.289L757.776 600.12C758.725 600.668 758.606 601.627 757.51 602.26L745.784 609.028C744.692 609.659 743.032 609.73 742.081 609.181Z" fill="var(--fill-0, #252A09)"/>
<path id="Vector_107" d="M760.354 619.729L748.522 612.898C747.57 612.35 747.692 611.391 748.789 610.758L760.514 603.99C761.611 603.356 763.271 603.288 764.22 603.837L776.052 610.668C777.003 611.216 776.882 612.175 775.785 612.808L764.06 619.576C762.965 620.21 761.305 620.277 760.354 619.729Z" fill="var(--fill-0, #252A09)"/>
<path id="Vector_108" d="M778.63 630.281L766.797 623.449C765.846 622.901 765.967 621.943 767.064 621.309L778.79 614.541C779.887 613.908 781.547 613.84 782.496 614.388L794.328 621.219C795.279 621.768 795.158 622.726 794.061 623.36L782.338 630.128C781.238 630.759 779.579 630.829 778.63 630.281Z" fill="var(--fill-0, #252A09)"/>
<path id="Vector_109" d="M796.902 640.83L785.07 633.999C784.118 633.45 784.24 632.492 785.337 631.858L797.062 625.09C798.159 624.457 799.819 624.389 800.768 624.937L812.6 631.769C813.551 632.317 813.43 633.276 812.333 633.909L800.61 640.677C799.513 641.31 797.853 641.381 796.902 640.83Z" fill="var(--fill-0, #252A09)"/>
<path id="Vector_110" d="M815.175 651.38L803.342 644.549C802.393 644 802.512 643.042 803.609 642.409L815.332 635.641C816.429 635.007 818.089 634.939 819.04 635.488L830.873 642.319C831.822 642.867 831.703 643.826 830.606 644.459L818.883 651.227C817.786 651.86 816.126 651.928 815.175 651.38Z" fill="var(--fill-0, #252A09)"/>
<path id="Vector_111" d="M847.66 670.137L821.843 655.23C820.894 654.681 821.013 653.723 822.11 653.089L833.836 646.319C834.933 645.686 836.592 645.618 837.541 646.166L863.359 661.073C864.31 661.622 864.188 662.58 863.092 663.213L851.368 669.981C850.271 670.617 848.612 670.685 847.66 670.137Z" fill="var(--fill-0, #252A09)"/>
<path id="Vector_112" d="M883.238 649.597L861.447 637.014C860.496 636.466 860.617 635.507 861.714 634.874L873.439 628.106C874.536 627.473 876.196 627.405 877.145 627.953L898.936 640.535C899.885 641.084 899.766 642.042 898.67 642.676L886.944 649.444C885.847 650.077 884.187 650.145 883.238 649.597Z" fill="var(--fill-0, #252A09)"/>
<path id="Vector_113" d="M700.988 564.916L689.156 558.085C688.205 557.536 688.326 556.578 689.423 555.944L701.146 549.176C702.243 548.543 703.903 548.475 704.854 549.024L716.686 555.855C717.638 556.403 717.516 557.362 716.42 557.995L704.696 564.763C703.599 565.394 701.94 565.464 700.988 564.916Z" fill="var(--fill-0, #252A09)"/>
<path id="Vector_114" d="M682.261 554.102L670.429 547.271C669.477 546.723 669.599 545.764 670.696 545.131L682.421 538.363C683.518 537.73 685.178 537.662 686.127 538.21L697.959 545.041C698.91 545.59 698.789 546.548 697.692 547.182L685.967 553.95C684.87 554.581 683.21 554.651 682.261 554.102Z" fill="var(--fill-0, #252A09)"/>
<path id="Vector_115" d="M663.533 543.289L651.7 536.458C650.749 535.91 650.87 534.951 651.967 534.318L663.693 527.55C664.79 526.916 666.449 526.848 667.398 527.397L679.231 534.228C680.182 534.776 680.061 535.735 678.964 536.368L667.241 543.136C666.141 543.77 664.484 543.837 663.533 543.289Z" fill="var(--fill-0, #252A09)"/>
<path id="Vector_116" d="M644.806 532.476L632.973 525.645C632.024 525.096 632.143 524.138 633.24 523.504L644.963 516.736C646.06 516.103 647.72 516.035 648.669 516.583L660.501 523.415C661.45 523.963 661.331 524.922 660.234 525.555L648.509 532.323C647.414 532.956 645.754 533.024 644.806 532.476Z" fill="var(--fill-0, #252A09)"/>
<path id="Vector_117" d="M719.263 575.465L707.431 568.634C706.479 568.085 706.601 567.127 707.698 566.494L719.423 559.723C720.52 559.09 722.18 559.022 723.129 559.57L734.961 566.401C735.912 566.95 735.791 567.908 734.694 568.542L722.969 575.312C721.872 575.945 720.212 576.013 719.263 575.465Z" fill="var(--fill-0, #252A09)"/>
<path id="Vector_118" d="M737.536 586.015L725.704 579.184C724.753 578.636 724.874 577.677 725.971 577.044L737.694 570.276C738.791 569.643 740.451 569.575 741.4 570.123L753.232 576.954C754.183 577.503 754.062 578.461 752.965 579.094L741.24 585.865C740.145 586.496 738.485 586.564 737.536 586.015Z" fill="var(--fill-0, #252A09)"/>
<path id="Vector_119" d="M755.809 596.564L743.976 589.733C743.025 589.185 743.146 588.226 744.243 587.593L755.966 580.823C757.063 580.189 758.723 580.121 759.674 580.67L771.507 587.501C772.456 588.049 772.337 589.008 771.24 589.641L759.517 596.409C758.417 597.045 756.76 597.113 755.809 596.564Z" fill="var(--fill-0, #252A09)"/>
<path id="Vector_120" d="M774.082 607.116L762.25 600.285C761.299 599.736 761.42 598.778 762.517 598.145L774.24 591.374C775.337 590.741 776.997 590.673 777.945 591.221L789.778 598.052C790.729 598.601 790.608 599.559 789.511 600.193L777.788 606.963C776.693 607.596 775.033 607.664 774.082 607.116Z" fill="var(--fill-0, #252A09)"/>
<path id="Vector_121" d="M792.357 617.666L780.524 610.835C779.573 610.287 779.695 609.328 780.791 608.695L792.515 601.927C793.611 601.293 795.271 601.226 796.22 601.774L808.053 608.605C809.004 609.153 808.882 610.112 807.786 610.745L796.06 617.516C794.966 618.144 793.306 618.215 792.357 617.666Z" fill="var(--fill-0, #252A09)"/>
<path id="Vector_122" d="M810.63 628.215L798.798 621.384C797.847 620.836 797.968 619.877 799.065 619.244L810.791 612.474C811.887 611.84 813.547 611.772 814.496 612.321L826.328 619.152C827.28 619.7 827.158 620.659 826.062 621.292L814.336 628.06C813.239 628.696 811.579 628.764 810.63 628.215Z" fill="var(--fill-0, #252A09)"/>
<path id="Vector_123" d="M828.903 638.767L817.07 631.936C816.122 631.387 816.241 630.429 817.337 629.795L829.063 623.027C830.16 622.394 831.82 622.326 832.769 622.875L844.601 629.706C845.55 630.254 845.431 631.213 844.334 631.846L832.611 638.614C831.514 639.247 829.854 639.315 828.903 638.767Z" fill="var(--fill-0, #252A09)"/>
<path id="Vector_124" d="M847.177 649.315L835.345 642.484C834.396 641.935 834.515 640.977 835.612 640.343L847.338 633.575C848.435 632.942 850.094 632.874 851.043 633.423L862.876 640.254C863.824 640.802 863.706 641.761 862.609 642.394L850.883 649.162C849.786 649.795 848.126 649.863 847.177 649.315Z" fill="var(--fill-0, #252A09)"/>
<path id="Vector_125" d="M865.451 659.866L853.618 653.035C852.667 652.487 852.788 651.528 853.885 650.895L865.608 644.127C866.705 643.494 868.365 643.426 869.314 643.974L881.146 650.805C882.098 651.353 881.979 652.312 880.879 652.945L869.154 659.716C868.059 660.347 866.4 660.415 865.451 659.866Z" fill="var(--fill-0, #252A09)"/>
<path id="Vector_126" d="M691.367 538.82L679.535 531.989C678.583 531.44 678.705 530.482 679.802 529.848L691.525 523.08C692.622 522.447 694.281 522.379 695.233 522.927L707.065 529.759C708.016 530.307 707.895 531.265 706.798 531.899L695.075 538.667C693.976 539.3 692.318 539.368 691.367 538.82Z" fill="var(--fill-0, #252A09)"/>
<path id="Vector_127" d="M673.184 528.322L661.351 521.49C660.403 520.942 660.521 519.984 661.618 519.35L673.342 512.58C674.438 511.946 676.098 511.878 677.049 512.427L688.882 519.258C689.833 519.806 689.712 520.765 688.615 521.398L676.892 528.166C675.795 528.802 674.135 528.87 673.184 528.322Z" fill="var(--fill-0, #252A09)"/>
<path id="Vector_128" d="M655.003 517.823L643.17 510.992C642.221 510.444 642.34 509.485 643.437 508.852L655.16 502.082C656.257 501.448 657.917 501.38 658.866 501.929L670.698 508.76C671.647 509.308 671.528 510.267 670.432 510.9L658.708 517.67C657.611 518.304 655.952 518.372 655.003 517.823Z" fill="var(--fill-0, #252A09)"/>
<path id="Vector_129" d="M636.819 507.326L624.987 500.495C624.038 499.947 624.157 498.988 625.254 498.355L636.977 491.587C638.074 490.954 639.734 490.886 640.683 491.434L652.515 498.265C653.466 498.814 653.347 499.772 652.248 500.405L640.525 507.173C639.428 507.807 637.768 507.875 636.819 507.326Z" fill="var(--fill-0, #252A09)"/>
<path id="Vector_130" d="M655.517 496.532L643.684 489.701C642.733 489.153 642.854 488.194 643.951 487.561L647.827 485.324C648.924 484.69 650.583 484.622 651.532 485.171L663.365 492.002C664.316 492.55 664.195 493.509 663.098 494.142L659.222 496.38C658.125 497.01 656.466 497.081 655.517 496.532Z" fill="var(--fill-0, #252A09)"/>
<path id="Vector_131" d="M679.246 510.231L667.413 503.4C666.464 502.851 666.583 501.893 667.68 501.26L671.556 499.022C672.652 498.389 674.312 498.321 675.261 498.869L687.094 505.7C688.045 506.249 687.923 507.207 686.827 507.841L682.951 510.078C681.854 510.711 680.195 510.779 679.246 510.231Z" fill="var(--fill-0, #252A09)"/>
<path id="Vector_132" d="M697.351 520.685L685.518 513.854C684.567 513.306 684.688 512.347 685.785 511.714L689.661 509.477C690.757 508.843 692.417 508.775 693.369 509.324L705.201 516.155C706.15 516.703 706.031 517.662 704.934 518.295L701.059 520.532C699.962 521.166 698.302 521.234 697.351 520.685Z" fill="var(--fill-0, #252A09)"/>
<path id="Vector_133" d="M715.458 531.14L703.626 524.309C702.677 523.76 702.796 522.802 703.893 522.168L707.768 519.931C708.865 519.298 710.525 519.23 711.474 519.778L723.306 526.609C724.258 527.157 724.136 528.116 723.039 528.749L719.164 530.987C718.067 531.62 716.407 531.688 715.458 531.14Z" fill="var(--fill-0, #252A09)"/>
<path id="Vector_134" d="M733.564 541.593L721.731 534.762C720.782 534.213 720.901 533.255 721.998 532.621L725.874 530.384C726.97 529.751 728.63 529.683 729.579 530.231L741.412 537.062C742.363 537.611 742.241 538.569 741.145 539.203L737.269 541.44C736.175 542.073 734.515 542.141 733.564 541.593Z" fill="var(--fill-0, #252A09)"/>
<path id="Vector_135" d="M834.652 599.957L822.82 593.126C821.871 592.578 821.99 591.619 823.086 590.986L826.962 588.748C828.059 588.115 829.719 588.047 830.667 588.596L842.5 595.427C843.451 595.975 843.33 596.934 842.233 597.567L838.357 599.804C837.263 600.435 835.603 600.506 834.652 599.957Z" fill="var(--fill-0, #252A09)"/>
<path id="Vector_136" d="M852.759 610.408L840.927 603.577C839.976 603.028 840.097 602.07 841.194 601.437L845.069 599.199C846.166 598.566 847.826 598.498 848.777 599.046L860.61 605.877C861.561 606.426 861.439 607.384 860.343 608.018L856.467 610.255C855.368 610.888 853.708 610.959 852.759 610.408Z" fill="var(--fill-0, #252A09)"/>
<path id="Vector_137" d="M870.867 620.862L859.034 614.031C858.083 613.483 858.205 612.524 859.301 611.891L863.177 609.654C864.274 609.02 865.933 608.952 866.882 609.501L878.715 616.332C879.664 616.88 879.545 617.839 878.448 618.472L874.572 620.709C873.476 621.343 871.816 621.413 870.867 620.862Z" fill="var(--fill-0, #252A09)"/>
<path id="Vector_138" d="M888.972 631.317L877.14 624.486C876.188 623.937 876.31 622.979 877.407 622.345L881.282 620.108C882.379 619.475 884.039 619.407 884.987 619.955L896.82 626.786C897.771 627.334 897.65 628.293 896.553 628.926L892.678 631.164C891.581 631.797 889.923 631.865 888.972 631.317Z" fill="var(--fill-0, #252A09)"/>
<path id="Vector_139" d="M709.639 549.371L697.807 542.54C696.858 541.992 696.977 541.033 698.074 540.4L709.797 533.632C710.894 532.998 712.554 532.931 713.503 533.479L725.335 540.31C726.284 540.858 726.165 541.817 725.068 542.45L713.345 549.218C712.251 549.849 710.591 549.92 709.639 549.371Z" fill="var(--fill-0, #252A09)"/>
<path id="Vector_140" d="M727.914 559.919L716.082 553.088C715.13 552.54 715.252 551.581 716.348 550.948L728.072 544.18C729.169 543.546 730.828 543.478 731.777 544.027L743.61 550.858C744.561 551.406 744.44 552.365 743.343 552.998L731.619 559.766C730.523 560.4 728.863 560.467 727.914 559.919Z" fill="var(--fill-0, #252A09)"/>
<path id="Vector_141" d="M746.187 570.471L734.355 563.64C733.404 563.091 733.525 562.133 734.622 561.499L746.345 554.731C747.442 554.098 749.102 554.03 750.051 554.578L761.883 561.409C762.834 561.958 762.713 562.916 761.616 563.55L749.89 570.32C748.796 570.951 747.139 571.019 746.187 570.471Z" fill="var(--fill-0, #252A09)"/>
<path id="Vector_142" d="M764.46 581.022L752.627 574.191C751.676 573.643 751.797 572.684 752.894 572.051L764.62 565.283C765.717 564.649 767.377 564.581 768.325 565.13L780.158 571.961C781.109 572.509 780.988 573.468 779.891 574.101L768.168 580.869C767.071 581.5 765.411 581.571 764.46 581.022Z" fill="var(--fill-0, #252A09)"/>
<path id="Vector_143" d="M782.736 591.57L770.903 584.739C769.954 584.191 770.073 583.232 771.17 582.599L782.896 575.831C783.993 575.197 785.653 575.129 786.601 575.678L798.434 582.509C799.383 583.057 799.264 584.016 798.167 584.649L786.444 591.42C785.344 592.05 783.685 592.118 782.736 591.57Z" fill="var(--fill-0, #252A09)"/>
<path id="Vector_144" d="M801.008 602.122L789.175 595.29C788.224 594.742 788.345 593.783 789.442 593.15L801.168 586.382C802.265 585.749 803.925 585.681 804.873 586.229L816.706 593.06C817.655 593.609 817.536 594.567 816.439 595.201L804.713 601.971C803.616 602.6 801.957 602.67 801.008 602.122Z" fill="var(--fill-0, #252A09)"/>
<path id="Vector_145" d="M819.281 612.671L807.449 605.84C806.498 605.291 806.619 604.333 807.716 603.699L819.441 596.931C820.538 596.298 822.198 596.23 823.147 596.778L834.979 603.609C835.931 604.158 835.809 605.116 834.712 605.75L822.987 612.518C821.89 613.151 820.233 613.219 819.281 612.671Z" fill="var(--fill-0, #252A09)"/>
<path id="Vector_146" d="M837.554 623.221L825.721 616.39C824.77 615.841 824.891 614.883 825.988 614.25L837.711 607.482C838.808 606.848 840.468 606.78 841.417 607.329L853.249 614.16C854.201 614.708 854.079 615.667 852.982 616.3L841.259 623.071C840.165 623.701 838.505 623.769 837.554 623.221Z" fill="var(--fill-0, #252A09)"/>
<path id="Vector_147" d="M855.828 633.77L843.996 626.939C843.047 626.391 843.166 625.432 844.263 624.799L855.989 618.031C857.085 617.397 858.745 617.329 859.694 617.878L871.526 624.709C872.478 625.257 872.356 626.216 871.26 626.849L859.536 633.617C858.437 634.251 856.777 634.321 855.828 633.77Z" fill="var(--fill-0, #252A09)"/>
<path id="Vector_148" d="M605.169 550.671L570.319 530.551C569.371 530.003 569.489 529.044 570.586 528.411L582.31 521.643C583.406 521.01 585.066 520.942 586.017 521.49L620.867 541.61C621.816 542.158 621.697 543.117 620.6 543.75L608.874 550.518C607.777 551.151 606.118 551.222 605.169 550.671Z" fill="var(--fill-0, #252A09)"/>
<path id="Vector_149" d="M829.663 680.284L794.813 660.165C793.864 659.616 793.983 658.658 795.08 658.024L806.806 651.256C807.903 650.623 809.563 650.555 810.511 651.104L845.361 671.223C846.312 671.771 846.191 672.73 845.094 673.363L833.368 680.131C832.271 680.762 830.612 680.833 829.663 680.284Z" fill="var(--fill-0, #252A09)"/>
<path id="Vector_150" d="M756.584 661.396L744.751 654.564C743.8 654.016 743.921 653.057 745.018 652.424L758.986 644.36C760.083 643.727 761.743 643.659 762.692 644.207L774.524 651.039C775.473 651.587 775.354 652.545 774.257 653.179L760.289 661.243C759.195 661.876 757.535 661.946 756.584 661.396Z" fill="var(--fill-0, #252A09)"/>
<path id="Vector_151" d="M623.881 584.78L604.957 573.855C604.009 573.307 604.128 572.348 605.224 571.715L619.192 563.651C620.289 563.018 621.949 562.95 622.898 563.498L641.821 574.423C642.772 574.972 642.651 575.93 641.554 576.563L627.586 584.627C626.492 585.261 624.832 585.329 623.881 584.78Z" fill="var(--fill-0, #252A09)"/>
<path id="Vector_152" d="M738.978 651.233L720.054 640.308C719.103 639.759 719.224 638.801 720.321 638.167L734.289 630.104C735.386 629.47 737.046 629.402 737.995 629.951L756.918 640.876C757.867 641.424 757.748 642.383 756.651 643.016L742.686 651.08C741.586 651.711 739.926 651.781 738.978 651.233Z" fill="var(--fill-0, #252A09)"/>
<path id="Vector_153" d="M650.247 600.003L631.324 589.078C630.375 588.529 630.494 587.571 631.591 586.937L645.559 578.874C646.655 578.24 648.315 578.172 649.264 578.721L668.187 589.645C669.138 590.194 669.017 591.152 667.92 591.786L653.952 599.85C652.855 600.481 651.196 600.551 650.247 600.003Z" fill="var(--fill-0, #252A09)"/>
<path id="Vector_154" d="M649.39 578.794L731.666 626.296C732.688 626.886 732.688 627.842 731.666 628.432L717.424 636.653C716.403 637.243 714.748 637.243 713.726 636.653L631.45 589.151L649.39 578.794Z" fill="var(--fill-0, #252A09)"/>
<path id="Vector_155" d="M807.655 680.525L820.837 688.135C821.616 688.584 821.519 689.37 820.618 689.889L814.903 693.187C814.006 693.706 812.644 693.762 811.865 693.313L798.686 685.703C797.907 685.254 798.004 684.468 798.904 683.949L804.617 680.651C805.517 680.132 806.876 680.076 807.655 680.525Z" fill="var(--fill-0, #252A09)"/>
<path id="Vector_156" d="M789.229 669.886L802.41 677.496C803.189 677.945 803.092 678.731 802.192 679.25L796.48 682.548C795.579 683.067 794.22 683.123 793.441 682.674L780.262 675.064C779.483 674.615 779.58 673.829 780.481 673.31L786.193 670.012C787.091 669.495 788.45 669.437 789.229 669.886Z" fill="var(--fill-0, #252A09)"/>
<path id="Vector_157" d="M770.956 659.337L784.138 666.948C784.917 667.397 784.82 668.183 783.92 668.702L778.207 672C777.307 672.519 775.948 672.575 775.169 672.126L761.987 664.516C761.209 664.067 761.306 663.281 762.206 662.762L767.918 659.464C768.819 658.944 770.177 658.889 770.956 659.337Z" fill="var(--fill-0, #252A09)"/>
<path id="Vector_158" d="M799.322 664.063L812.501 671.673C813.28 672.122 813.183 672.908 812.283 673.427L806.568 676.725C805.67 677.244 804.309 677.3 803.53 676.851L790.348 669.241C789.569 668.792 789.666 668.006 790.566 667.487L796.281 664.189C797.181 663.67 798.543 663.611 799.322 664.063Z" fill="var(--fill-0, #252A09)"/>
</g>
<path id="Vector_159" d="M992.715 642.717L643.61 441.161C638.121 437.992 635.255 430.268 637.211 423.912L716.16 167.581C718.116 161.225 724.151 158.641 729.64 161.81L1078.75 363.367C1084.23 366.536 1087.1 374.258 1085.14 380.616L1006.2 636.947C1004.24 643.305 998.207 645.887 992.715 642.717Z" fill="url(#paint5_radial_7126_4340)"/>
<path id="Vector_160" d="M989.425 633.74L650.813 438.081C645.559 435.047 642.817 427.658 644.688 421.574L720.167 176.522C722.038 170.439 727.813 167.966 733.067 170.999L1071.68 366.659C1076.93 369.692 1079.68 377.082 1077.8 383.165L1002.33 628.217C1000.45 634.301 994.679 636.774 989.425 633.74Z" fill="url(#paint6_linear_7126_4340)"/>
<path id="Vector_161" opacity="0.4" d="M989.425 633.74L650.813 438.081C645.559 435.047 642.817 427.658 644.688 421.574L720.167 176.522C722.038 170.439 727.813 167.966 733.067 170.999L1071.68 366.659C1076.93 369.692 1079.68 377.082 1077.8 383.165L1002.33 628.217C1000.45 634.301 994.679 636.774 989.425 633.74Z" fill="var(--fill-0, #252A09)"/>
<path id="Vector_162" opacity="0.4" d="M989.425 633.74L650.813 438.081C645.559 435.047 642.817 427.658 644.688 421.574L720.167 176.522C722.038 170.439 727.813 167.966 733.067 170.999L1071.68 366.659C1076.93 369.692 1079.68 377.082 1077.8 383.165L1002.33 628.217C1000.45 634.301 994.679 636.774 989.425 633.74Z" fill="var(--fill-0, #4A5313)"/>
<path id="Vector_163" opacity="0.5" d="M971.233 558.853L742.01 426.513C738.406 424.431 736.523 419.361 737.807 415.187L789.645 246.879C790.929 242.705 794.892 241.009 798.498 243.088L1027.72 375.429C1031.32 377.511 1033.21 382.58 1031.92 386.754L980.085 555.063C978.801 559.237 974.839 560.933 971.233 558.853Z" fill="var(--fill-0, #252A09)"/>
<g id="Group_4">
<path id="Vector_164" d="M940.261 562.916L711.038 430.576C707.434 428.494 705.551 423.424 706.835 419.25L758.673 250.942C759.957 246.768 763.919 245.072 767.523 247.151L996.746 379.494C1000.35 381.576 1002.23 386.646 1000.95 390.82L949.108 559.128C947.829 563.302 943.867 564.999 940.261 562.916Z" fill="url(#paint7_radial_7126_4340)"/>
</g>
<g id="Group_5" opacity="0.5">
<path id="Vector_165" d="M940.261 562.916L711.038 430.576C707.434 428.494 705.551 423.424 706.835 419.25L758.673 250.942C759.957 246.768 763.919 245.072 767.523 247.151L996.746 379.494C1000.35 381.576 1002.23 386.646 1000.95 390.82L949.108 559.128C947.829 563.302 943.867 564.999 940.261 562.916Z" fill="var(--fill-0, #252A09)"/>
</g>
<path id="Vector_166" d="M996.748 379.494L767.525 247.151C765.266 245.848 762.869 246.028 761.075 247.37C762.155 247.338 763.284 247.583 764.385 248.217L993.608 380.557C997.212 382.637 999.092 387.709 997.809 391.883L945.97 560.191C945.49 561.749 944.636 562.96 943.568 563.761C946.026 563.688 948.217 562.023 949.11 559.124L1000.95 390.815C1002.24 386.646 1000.35 381.574 996.748 379.494Z" fill="var(--fill-0, #F1F6D5)"/>
<path id="Vector_167" opacity="0.4" d="M651.158 700.357C647.998 700.357 644.974 699.7 642.664 698.367V698.37L550.825 645.347C548.391 643.94 547.051 641.933 547.051 639.688C547.049 637.087 548.898 634.527 552.116 632.668L599.387 605.373C605.165 602.041 613.641 601.713 618.696 604.628L710.533 657.65C712.967 659.055 714.307 661.065 714.309 663.309C714.309 665.911 712.462 668.471 709.245 670.327L661.968 697.622C658.838 699.433 654.904 700.357 651.158 700.357ZM610.249 605.324C606.929 605.324 603.403 606.122 600.717 607.673L553.445 634.966C551.067 636.337 549.703 638.06 549.703 639.688C549.703 641.297 551.036 642.404 552.154 643.049L643.994 696.072C648.161 698.472 655.783 698.137 660.646 695.324L707.92 668.032C710.295 666.66 711.659 664.938 711.659 663.309C711.659 661.7 710.327 660.594 709.208 659.948L617.371 606.926C615.507 605.848 612.945 605.324 610.249 605.324Z" fill="var(--fill-0, #252A09)"/>
</g>
<g id="Group_6">
<g id="Group_7">
<path id="Vector_168" d="M823.359 335.453L809.187 327.271C807.872 326.511 807.168 324.686 807.613 323.196C808.057 321.704 809.483 321.112 810.799 321.871L824.97 330.054C826.286 330.814 826.989 332.638 826.545 334.128C826.099 335.618 824.672 336.21 823.359 335.453Z" fill="var(--fill-0, white)"/>
<path id="Vector_169" d="M857.114 354.941L836.218 342.876C834.903 342.116 834.199 340.291 834.644 338.801C835.088 337.309 836.514 336.717 837.83 337.476L858.726 349.539C860.041 350.299 860.745 352.124 860.301 353.614C859.857 355.106 858.43 355.701 857.114 354.941Z" fill="var(--fill-0, white)"/>
<path id="Vector_170" d="M794.778 398.544L780.607 390.361C779.291 389.602 778.588 387.777 779.032 386.287C779.476 384.794 780.903 384.202 782.218 384.959L796.39 393.142C797.705 393.902 798.409 395.727 797.965 397.217C797.52 398.709 796.094 399.304 794.778 398.544Z" fill="var(--fill-0, white)"/>
<path id="Vector_171" d="M824.869 415.919L803.973 403.856C802.657 403.097 801.954 401.272 802.398 399.782C802.842 398.29 804.269 397.697 805.584 398.457L826.48 410.522C827.795 411.282 828.499 413.107 828.055 414.597C827.611 416.084 826.184 416.676 824.869 415.919Z" fill="var(--fill-0, white)"/>
<path id="Vector_172" d="M780.906 324.208L772.054 319.097C770.739 318.338 770.035 316.513 770.479 315.023C770.923 313.53 772.35 312.938 773.665 313.698L782.518 318.808C783.833 319.568 784.537 321.393 784.093 322.883C783.649 324.373 782.222 324.967 780.906 324.208Z" fill="var(--fill-0, white)"/>
<path id="Vector_173" d="M807.544 352.852L780.496 337.237C779.181 336.477 778.477 334.652 778.921 333.162C779.366 331.67 780.792 331.078 782.108 331.837L809.155 347.453C810.471 348.213 811.174 350.037 810.73 351.527C810.286 353.02 808.859 353.612 807.544 352.852Z" fill="var(--fill-0, white)"/>
<path id="Vector_174" d="M782.598 364.98L773.746 359.869C772.431 359.11 771.727 357.285 772.171 355.795C772.615 354.303 774.042 353.711 775.357 354.47L784.21 359.581C785.525 360.34 786.229 362.165 785.785 363.655C785.338 365.145 783.911 365.74 782.598 364.98Z" fill="var(--fill-0, white)"/>
<path id="Vector_175" d="M828.132 444.332L804.487 430.68C803.172 429.92 802.468 428.096 802.912 426.606C803.356 425.113 804.783 424.521 806.098 425.281L829.744 438.933C831.059 439.693 831.763 441.518 831.319 443.007C830.872 444.497 829.448 445.092 828.132 444.332Z" fill="var(--fill-0, white)"/>
<path id="Vector_176" d="M772.675 385.784L766.992 382.503C765.677 381.744 764.973 379.919 765.417 378.429C765.861 376.937 767.288 376.344 768.603 377.104L774.287 380.385C775.602 381.144 776.306 382.969 775.862 384.459C775.415 385.949 773.991 386.541 772.675 385.784Z" fill="var(--fill-0, white)"/>
<path id="Vector_177" d="M767.299 409.209L760.242 405.135C758.927 404.375 758.223 402.55 758.667 401.061C759.111 399.568 760.538 398.976 761.853 399.736L768.91 403.81C770.225 404.569 770.929 406.394 770.485 407.884C770.041 409.374 768.614 409.969 767.299 409.209Z" fill="var(--fill-0, white)"/>
<path id="Vector_178" d="M794.751 425.061L776.145 414.32C774.83 413.561 774.126 411.736 774.571 410.246C775.015 408.753 776.441 408.161 777.757 408.921L796.362 419.661C797.677 420.421 798.381 422.246 797.937 423.736C797.493 425.226 796.066 425.82 794.751 425.061Z" fill="var(--fill-0, white)"/>
<path id="Vector_179" d="M770.242 424.175L756.866 416.451C755.551 415.691 754.847 413.866 755.291 412.376C755.735 410.884 757.162 410.292 758.477 411.051L771.856 418.775C773.171 419.535 773.875 421.36 773.43 422.85C772.984 424.34 771.557 424.934 770.242 424.175Z" fill="var(--fill-0, white)"/>
<path id="Vector_180" d="M848.417 456.102L839.826 451.142C838.511 450.382 837.807 448.558 838.252 447.068C838.696 445.575 840.122 444.983 841.438 445.743L850.028 450.703C851.343 451.462 852.047 453.287 851.603 454.777C851.159 456.267 849.732 456.859 848.417 456.102Z" fill="var(--fill-0, white)"/>
<path id="Vector_181" d="M815.529 383.994L791.883 370.342C790.568 369.582 789.864 367.757 790.308 366.267C790.752 364.775 792.179 364.183 793.495 364.942L817.14 378.595C818.455 379.354 819.159 381.179 818.715 382.669C818.271 384.159 816.844 384.754 815.529 383.994Z" fill="var(--fill-0, white)"/>
</g>
<path id="Vector_182" d="M818.33 372.345L777.121 348.552C775.805 347.792 775.101 345.967 775.546 344.477C775.99 342.985 777.417 342.393 778.732 343.152L819.941 366.946C821.257 367.705 821.96 369.53 821.516 371.02C821.072 372.51 819.645 373.105 818.33 372.345Z" fill="var(--fill-0, #BAD133)"/>
<path id="Vector_183" d="M794.013 384.838L770.368 371.185C769.053 370.426 768.349 368.601 768.793 367.111C769.237 365.619 770.664 365.026 771.979 365.786L795.625 379.438C796.94 380.198 797.644 382.023 797.199 383.513C796.755 385.003 795.328 385.597 794.013 384.838Z" fill="var(--fill-0, #BAD133)"/>
<path id="Vector_184" d="M833.461 394.348L824.871 389.388C823.555 388.628 822.852 386.803 823.296 385.313C823.74 383.821 825.167 383.229 826.482 383.988L835.072 388.949C836.388 389.708 837.091 391.533 836.647 393.023C836.203 394.513 834.776 395.107 833.461 394.348Z" fill="var(--fill-0, #BAD133)"/>
<path id="Vector_185" d="M920.848 391.74L869.973 362.367C868.657 361.608 867.953 359.783 868.398 358.293C868.842 356.801 870.269 356.209 871.584 356.968L922.459 386.34C923.774 387.1 924.478 388.925 924.034 390.415C923.59 391.905 922.163 392.497 920.848 391.74Z" fill="var(--fill-0, #BAD133)"/>
<path id="Vector_186" d="M792.04 410.228L763.616 393.819C762.301 393.059 761.597 391.235 762.041 389.745C762.485 388.252 763.912 387.66 765.227 388.417L793.651 404.826C794.966 405.586 795.67 407.411 795.226 408.901C794.782 410.393 793.355 410.988 792.04 410.228Z" fill="var(--fill-0, #BAD133)"/>
<path id="Vector_187" d="M796.326 319.845L775.43 307.779C774.114 307.02 773.411 305.195 773.855 303.705C774.299 302.212 775.726 301.62 777.041 302.38L797.937 314.445C799.252 315.205 799.956 317.03 799.512 318.52C799.068 320.01 797.641 320.604 796.326 319.845Z" fill="var(--fill-0, #BAD133)"/>
<path id="Vector_188" d="M765.871 434.917L741.67 420.945C740.354 420.185 739.651 418.36 740.095 416.87C740.539 415.378 741.966 414.786 743.281 415.543L767.482 429.516C768.797 430.275 769.501 432.1 769.057 433.59C768.613 435.082 767.186 435.677 765.871 434.917Z" fill="var(--fill-0, #BAD133)"/>
</g>
<g id="Group_8">
<path id="Vector_189" d="M926.56 365.576L916.203 359.594C915.242 359.038 914.725 357.706 915.053 356.616C915.378 355.527 916.421 355.092 917.382 355.648L927.739 361.627C928.7 362.183 929.215 363.515 928.89 364.607C928.562 365.694 927.521 366.129 926.56 365.576Z" fill="var(--fill-0, white)"/>
<path id="Vector_190" d="M946.318 376.984L935.959 371.002C934.998 370.446 934.483 369.114 934.808 368.024C935.134 366.935 936.177 366.501 937.138 367.056L947.495 373.036C948.456 373.591 948.97 374.923 948.645 376.013C948.323 377.103 947.279 377.537 946.318 376.984Z" fill="var(--fill-0, white)"/>
<path id="Vector_191" d="M966.075 388.388L955.718 382.409C954.757 381.853 954.243 380.521 954.568 379.431C954.893 378.342 955.936 377.908 956.897 378.463L967.254 384.443C968.215 384.998 968.732 386.33 968.407 387.42C968.079 388.51 967.036 388.944 966.075 388.388Z" fill="var(--fill-0, white)"/>
<path id="Vector_192" d="M975.787 394.004L975.476 393.817C974.515 393.261 974.001 391.929 974.326 390.84C974.651 389.75 975.695 389.316 976.655 389.871L976.966 390.058C977.927 390.614 978.442 391.946 978.116 393.036C977.791 394.125 976.748 394.56 975.787 394.004Z" fill="var(--fill-0, #BAD133)"/>
</g>
<path id="Vector_193" d="M441.161 515.225C434.607 515.225 428.05 513.538 422.204 510.16L352.813 470.096C349.804 468.359 348.009 465.25 348.009 461.775C348.009 458.3 349.804 455.192 352.813 453.454L422.202 413.392C433.893 406.641 448.429 406.639 460.121 413.392L529.511 453.457C532.52 455.194 534.316 458.303 534.316 461.778C534.316 465.253 532.52 468.361 529.511 470.099L460.123 510.16C454.277 513.538 447.718 515.225 441.161 515.225ZM424.461 506.251C434.764 512.196 447.563 512.196 457.869 506.251L527.257 466.189C528.849 465.267 529.802 463.619 529.802 461.78C529.802 459.941 528.849 458.29 527.257 457.371L457.866 417.306C447.558 411.356 434.76 411.361 424.458 417.306L355.07 457.368C353.478 458.29 352.525 459.938 352.525 461.778C352.525 463.619 353.478 465.267 355.07 466.187L424.461 506.251Z" fill="var(--fill-0, #494949)"/>
<g id="Group_9">
<path id="Vector_194" opacity="0.6" d="M474.513 482.181C455.901 492.927 425.723 492.927 407.11 482.181C388.498 471.436 388.498 454.013 407.11 443.267C425.723 432.522 455.901 432.522 474.513 443.267C493.126 454.013 493.126 471.434 474.513 482.181Z" fill="var(--fill-0, #4A5313)"/>
<path id="Vector_195" d="M511.462 266.601H375.709L388.335 413.582C388.335 421.745 393.73 429.909 404.519 436.138C426.097 448.596 461.079 448.596 482.655 436.138C493.444 429.909 498.838 421.745 498.836 413.582L511.462 266.601Z" fill="url(#paint8_radial_7126_4340)"/>
<path id="Vector_196" opacity="0.4" d="M511.462 266.601H375.709L377.787 290.783C380.898 294.773 385.084 298.597 390.369 302.101C416.31 319.309 459.111 322.626 488.319 310.233L483.803 417.734C483.606 422.42 481.988 426.977 478.952 430.552C474.555 435.728 466.083 441.816 449.798 445.26C461.803 444.481 473.453 441.455 482.657 436.14C493.446 429.911 498.841 421.748 498.838 413.585L508.965 295.709L511.462 266.601Z" fill="var(--fill-0, #252A09)"/>
<path id="Vector_197" opacity="0.4" d="M443.586 305.789C481.073 305.789 511.462 288.243 511.462 266.6C511.462 244.957 481.073 227.412 443.586 227.412C406.099 227.412 375.709 244.957 375.709 266.6C375.709 288.243 406.099 305.789 443.586 305.789Z" fill="var(--fill-0, #252A09)"/>
<path id="Vector_198" opacity="0.4" d="M443.585 286.544C475.874 286.544 502.049 271.431 502.049 252.789C502.049 234.146 475.874 219.034 443.585 219.034C411.297 219.034 385.122 234.146 385.122 252.789C385.122 271.431 411.297 286.544 443.585 286.544Z" fill="var(--fill-0, #252A09)"/>
<path id="Vector_199" d="M515.483 264.755L515.49 264.764L515.478 264.646C515.473 264.578 515.463 264.512 515.459 264.444L514.155 251.284L514.1 251.432C513.517 241.471 506.657 231.609 493.488 224.006C465.928 208.095 421.246 208.095 393.688 224.006C380.186 231.803 373.317 241.971 373.047 252.187L373.03 252.153L371.788 263.871C371.754 264.177 371.713 264.481 371.691 264.786L371.671 264.978L371.683 264.968C370.938 276.133 377.935 287.437 392.698 295.959C420.804 312.186 466.374 312.186 494.483 295.959C509.334 287.383 516.33 275.99 515.483 264.755Z" fill="url(#paint9_linear_7126_4340)"/>
<path id="Vector_200" d="M443.585 286.544C475.874 286.544 502.049 271.431 502.049 252.789C502.049 234.146 475.874 219.034 443.585 219.034C411.297 219.034 385.122 234.146 385.122 252.789C385.122 271.431 411.297 286.544 443.585 286.544Z" fill="url(#paint10_linear_7126_4340)"/>
<path id="Vector_201" d="M440.812 286.544C473.1 286.544 499.275 271.431 499.275 252.789C499.275 234.146 473.1 219.034 440.812 219.034C408.523 219.034 382.348 234.146 382.348 252.789C382.348 271.431 408.523 286.544 440.812 286.544Z" fill="url(#paint11_linear_7126_4340)"/>
<path id="Vector_202" opacity="0.4" d="M409.18 233.948C432.01 220.766 469.029 220.766 491.859 233.948C492.151 234.115 492.393 234.3 492.677 234.47C490.474 232.507 487.904 230.64 484.924 228.92C462.091 215.738 425.075 215.738 402.245 228.92C379.704 241.934 379.461 262.915 401.427 276.133C386.76 263.056 389.33 245.409 409.18 233.948Z" fill="var(--fill-0, #252A09)"/>
<path id="Vector_203" d="M402.245 234.778C425.078 221.596 462.094 221.596 484.927 234.778C495.051 240.624 500.676 248.078 501.821 255.718C503.258 246.13 497.633 236.256 484.927 228.92C462.094 215.738 425.078 215.738 402.245 228.92C389.539 236.256 383.914 246.13 385.351 255.715C386.496 248.078 392.121 240.624 402.245 234.778Z" fill="var(--fill-0, #252A09)"/>
<path id="Vector_204" d="M493.922 224.314C466.401 208.101 421.556 207.706 393.757 223.433C365.957 239.158 365.731 265.05 393.249 281.263C420.768 297.475 465.613 297.871 493.415 282.146C521.215 266.419 521.441 240.526 493.922 224.314ZM484.926 276.657C477.299 281.061 468.078 283.959 458.342 285.42L457.282 281.933C456.852 280.525 455.554 279.562 454.084 279.562H433.09C431.62 279.562 430.319 280.525 429.892 281.933L428.832 285.42C419.096 283.959 409.877 281.061 402.25 276.657C379.417 263.475 379.417 242.104 402.248 228.922C425.078 215.74 462.096 215.74 484.926 228.922C507.757 242.104 507.757 263.475 484.926 276.657Z" fill="url(#paint12_radial_7126_4340)"/>
<g id="Group_10">
<path id="Vector_205" d="M484.923 226.422C462.091 213.241 425.075 213.241 402.245 226.422C390.279 233.331 384.595 242.489 385.173 251.538C385.697 243.322 391.38 235.195 402.245 228.922C425.075 215.74 462.093 215.74 484.923 228.922C495.788 235.195 501.471 243.322 501.995 251.541C502.575 242.489 496.892 233.331 484.923 226.422Z" fill="var(--fill-0, white)"/>
<path id="Vector_206" d="M493.412 279.644C465.612 295.368 420.768 294.975 393.247 278.76C380.152 271.046 373.353 261.138 372.804 251.176C372.263 261.963 379.056 272.897 393.247 281.26C420.768 297.472 465.612 297.868 493.412 282.143C507.982 273.902 514.966 262.866 514.362 251.895C513.854 262.028 506.878 272.029 493.412 279.644Z" fill="var(--fill-0, white)"/>
</g>
<path id="Vector_207" d="M449.858 287.235H437.31C436.434 287.235 435.725 286.524 435.725 285.651V285.43C435.725 284.554 436.434 283.843 437.31 283.843H449.858C450.734 283.843 451.443 284.554 451.443 285.43V285.651C451.445 286.524 450.734 287.235 449.858 287.235Z" fill="var(--fill-0, #252A09)"/>
<path id="Vector_208" d="M449.858 283.843H437.31C436.434 283.843 435.725 284.554 435.725 285.43V285.651C435.725 285.801 435.772 285.935 435.81 286.073C435.997 285.408 436.585 284.91 437.31 284.91H449.858C450.584 284.91 451.171 285.408 451.358 286.073C451.397 285.935 451.443 285.801 451.443 285.651V285.43C451.445 284.551 450.734 283.843 449.858 283.843Z" fill="url(#paint13_linear_7126_4340)"/>
<g id="Group_11">
<path id="Vector_209" d="M445.507 398.482C443.968 404.27 438.028 407.716 432.238 406.177C426.45 404.639 423.004 398.698 424.543 392.911C426.081 387.123 431.541 385.483 437.331 387.021C443.121 388.56 447.045 392.695 445.507 398.482Z" fill="var(--fill-0, #BAD133)"/>
<path id="Vector_210" d="M454.044 387.058C451.86 389.191 449.067 388.917 447.213 387.019C445.359 385.124 445.148 382.324 447.33 380.191C449.514 378.058 453.663 377.004 455.517 378.902C457.374 380.8 456.228 384.925 454.044 387.058Z" fill="var(--fill-0, #BAD133)"/>
<path id="Vector_211" d="M442.702 377.985C442.168 380.991 439.734 382.391 437.123 381.926C434.512 381.462 432.711 379.307 433.248 376.301C433.782 373.294 436.548 370.025 439.159 370.491C441.77 370.957 443.238 374.98 442.702 377.985Z" fill="var(--fill-0, #BAD133)"/>
<path id="Vector_212" d="M428.722 376.597C429.884 379.421 428.581 381.906 426.13 382.916C423.677 383.925 421.003 383.073 419.84 380.251C418.678 377.429 419.258 373.185 421.711 372.175C424.162 371.166 427.56 373.774 428.722 376.597Z" fill="var(--fill-0, #BAD133)"/>
</g>
</g>
<path id="Vector_213" opacity="0.5" d="M448.03 285.538C448.03 285.538 485.983 272.82 470.615 229.21C455.247 185.601 425.329 172.31 437.382 137.424C437.382 137.424 418.493 165.666 436.144 203.876C453.796 242.086 457.666 237.697 457.46 255.972C457.213 277.683 439.675 285.541 439.675 285.541L448.03 285.538Z" fill="var(--fill-0, white)"/>
<path id="Vector_214" opacity="0.5" d="M451.445 143.491C451.445 143.491 447.494 117.404 471.962 91.1161C471.962 91.1161 450.324 139.448 457.402 163.309C457.402 163.309 451.678 148.14 451.445 143.491Z" fill="var(--fill-0, white)"/>
</g>
<defs>
<linearGradient id="paint0_linear_7126_4340" x1="1167.37" y1="744.783" x2="1246.51" y2="744.783" gradientUnits="userSpaceOnUse">
<stop stop-color="#D6E486"/>
<stop offset="1" stop-color="#72811E"/>
</linearGradient>
<linearGradient id="paint1_linear_7126_4340" x1="1059.02" y1="636.328" x2="1191.95" y2="636.328" gradientUnits="userSpaceOnUse">
<stop stop-color="#D6E486"/>
<stop offset="1" stop-color="#72811E"/>
</linearGradient>
<radialGradient id="paint2_radial_7126_4340" cx="0" cy="0" r="1" gradientUnits="userSpaceOnUse" gradientTransform="translate(729.082 147.073) scale(541.865 541.865)">
<stop stop-color="#D6E486"/>
<stop offset="0.350961" stop-color="#BAD133"/>
<stop offset="0.576922" stop-color="#97AB27"/>
<stop offset="0.798076" stop-color="#4A5313"/>
<stop offset="1" stop-color="#121505"/>
</radialGradient>
<radialGradient id="paint3_radial_7126_4340" cx="0" cy="0" r="1" gradientUnits="userSpaceOnUse" gradientTransform="translate(507.723 441.232) scale(728.031 386.506)">
<stop stop-color="#D6E486"/>
<stop offset="0.350961" stop-color="#BAD133"/>
<stop offset="0.576922" stop-color="#97AB27"/>
<stop offset="0.798076" stop-color="#4A5313"/>
<stop offset="1" stop-color="#121505"/>
</radialGradient>
<radialGradient id="paint4_radial_7126_4340" cx="0" cy="0" r="1" gradientUnits="userSpaceOnUse" gradientTransform="translate(452.162 463.3) scale(531.343 531.343)">
<stop stop-color="#BAD133"/>
<stop offset="0.4742" stop-color="#6F7C21"/>
<stop offset="0.5875" stop-color="#5C6717"/>
<stop offset="0.7262" stop-color="#5C6717"/>
<stop offset="1" stop-color="#2B3009"/>
</radialGradient>
<radialGradient id="paint5_radial_7126_4340" cx="0" cy="0" r="1" gradientUnits="userSpaceOnUse" gradientTransform="translate(723.129 149.193) scale(541.867 540.103)">
<stop stop-color="#D6E486"/>
<stop offset="0.350961" stop-color="#BAD133"/>
<stop offset="0.576922" stop-color="#97AB27"/>
<stop offset="0.798076" stop-color="#4A5313"/>
<stop offset="1" stop-color="#121505"/>
</radialGradient>
<linearGradient id="paint6_linear_7126_4340" x1="644.1" y1="402.37" x2="1078.39" y2="402.37" gradientUnits="userSpaceOnUse">
<stop stop-color="#4A5313"/>
<stop offset="1" stop-color="#121505"/>
</linearGradient>
<radialGradient id="paint7_radial_7126_4340" cx="0" cy="0" r="1" gradientUnits="userSpaceOnUse" gradientTransform="translate(736.142 269.606) scale(259.577 484.091)">
<stop stop-color="#BAD133"/>
<stop offset="0.4742" stop-color="#6F7C21"/>
<stop offset="0.5875" stop-color="#5C6717"/>
<stop offset="0.7262" stop-color="#5C6717"/>
<stop offset="1" stop-color="#2B3009"/>
</radialGradient>
<radialGradient id="paint8_radial_7126_4340" cx="0" cy="0" r="1" gradientUnits="userSpaceOnUse" gradientTransform="translate(364.525 309.808) scale(401.247 401.247)">
<stop stop-color="#97AB27"/>
<stop offset="0.1528" stop-color="#72811E"/>
<stop offset="0.4087" stop-color="#4A5313"/>
<stop offset="0.9311" stop-color="#252A09"/>
</radialGradient>
<linearGradient id="paint9_linear_7126_4340" x1="371.627" y1="260.102" x2="515.551" y2="260.102" gradientUnits="userSpaceOnUse">
<stop stop-color="#97AB27"/>
<stop offset="0.252" stop-color="#4A5313"/>
<stop offset="0.5556" stop-color="#252A09"/>
</linearGradient>
<linearGradient id="paint10_linear_7126_4340" x1="385.122" y1="252.789" x2="502.049" y2="252.789" gradientUnits="userSpaceOnUse">
<stop stop-color="#4A5313"/>
<stop offset="1" stop-color="#BAD133"/>
</linearGradient>
<linearGradient id="paint11_linear_7126_4340" x1="382.347" y1="252.789" x2="499.275" y2="252.789" gradientUnits="userSpaceOnUse">
<stop stop-color="#4A5313"/>
<stop offset="1" stop-color="#97AB27"/>
</linearGradient>
<radialGradient id="paint12_radial_7126_4340" cx="0" cy="0" r="1" gradientUnits="userSpaceOnUse" gradientTransform="translate(353.663 219.382) scale(262.479 262.479)">
<stop stop-color="#BAD133"/>
<stop offset="0.252" stop-color="#72811E"/>
<stop offset="0.7357" stop-color="#252A09"/>
</radialGradient>
<linearGradient id="paint13_linear_7126_4340" x1="434.332" y1="284.957" x2="454.727" y2="284.957" gradientUnits="userSpaceOnUse">
<stop stop-color="#4A5313"/>
<stop offset="0.466346" stop-color="#97AB27"/>
<stop offset="0.966346" stop-color="#BAD133"/>
</linearGradient>
<clipPath id="clip0_7126_4340">
<rect width="1456" height="1092" fill="white"/>
</clipPath>
</defs>
</svg>
