<svg preserveAspectRatio="none" width="100%" height="100%" overflow="visible" style="display: block;" viewBox="0 0 7 5" fill="none" xmlns="http://www.w3.org/2000/svg">
<g id="Group">
<path id="Vector" d="M2.82609 4.84059L2.39133 3.97105V2.23191L3.47828 1.36234L4.56523 2.23191V3.53625L5 3.10148V3.97105L4.13043 4.84059H2.82609Z" fill="var(--fill-0, #F0F0F0)"/>
<path id="Vector_2" d="M0.487617 2.17391L0.602734 2.5282H0.975234L0.673867 2.74723L0.789023 3.10148L0.487617 2.8825L0.186211 3.10148L0.301367 2.74723L0 2.5282H0.3725L0.487617 2.17391Z" fill="var(--fill-0, #F0F0F0)"/>
<path id="Vector_3" d="M1.35719 1.30434L1.4723 1.65863H1.84484L1.54344 1.87766L1.65855 2.23191L1.35719 2.01297L1.05582 2.23191L1.17098 1.87766L0.86957 1.65863H1.24203L1.35719 1.30434Z" fill="var(--fill-0, #F0F0F0)"/>
<path id="Vector_4" d="M2.22676 0.434766L2.34187 0.789062H2.71434L2.41301 1.00809L2.52809 1.36234L2.22676 1.1434L1.92535 1.36234L2.04047 1.00809L1.73914 0.789062H2.1116L2.22676 0.434766Z" fill="var(--fill-0, #F0F0F0)"/>
<path id="Vector_5" d="M6.46891 2.17391L6.35379 2.5282H5.98133L6.28266 2.74723L6.16754 3.10148L6.46891 2.8825L6.77031 3.10148L6.6552 2.74723L6.95652 2.5282H6.58406L6.46891 2.17391Z" fill="var(--fill-0, #F0F0F0)"/>
<path id="Vector_6" d="M5.59934 1.30434L5.48422 1.65863H5.11176L5.41309 1.87766L5.29797 2.23191L5.59934 2.01297L5.90074 2.23191L5.78559 1.87766L6.08695 1.65863H5.71449L5.59934 1.30434Z" fill="var(--fill-0, #F0F0F0)"/>
<path id="Vector_7" d="M4.7298 0.434766L4.61465 0.789062H4.24219L4.54352 1.00809L4.4284 1.36234L4.7298 1.1434L5.03117 1.36234L4.91605 1.00809L5.21738 0.789062H4.84492L4.7298 0.434766Z" fill="var(--fill-0, #F0F0F0)"/>
<path id="Vector_8" d="M3.47828 0L3.36312 0.354297H2.99066L3.29199 0.573281L3.17687 0.927539L3.47828 0.708594L3.77965 0.927539L3.66453 0.573281L3.96586 0.354297H3.5934L3.47828 0Z" fill="var(--fill-0, #F0F0F0)"/>
</g>
</svg>
