<svg preserveAspectRatio="none" width="100%" height="100%" overflow="visible" style="display: block;" viewBox="0 0 633 159" fill="none" xmlns="http://www.w3.org/2000/svg">
<g id="Data Points Container">
<path id="Vector" d="M6.9999 156.76C9.76132 156.76 11.9999 154.522 11.9999 151.76C11.9999 148.999 9.76132 146.76 6.9999 146.76C4.23847 146.76 1.9999 148.999 1.9999 151.76C1.9999 154.522 4.23847 156.76 6.9999 156.76Z" fill="var(--fill-0, #252A09)" stroke="var(--stroke-0, #72811E)" stroke-width="3"/>
<path id="Vector_2" d="M61.7646 150.423C64.5261 150.423 66.7646 148.185 66.7646 145.423C66.7646 142.662 64.5261 140.423 61.7646 140.423C59.0032 140.423 56.7646 142.662 56.7646 145.423C56.7646 148.185 59.0032 150.423 61.7646 150.423Z" fill="var(--fill-0, #252A09)" stroke="var(--stroke-0, #72811E)" stroke-width="3"/>
<path id="Vector_3" d="M118.219 141.935C120.981 141.935 123.219 139.696 123.219 136.935C123.219 134.173 120.981 131.935 118.219 131.935C115.458 131.935 113.219 134.173 113.219 136.935C113.219 139.696 115.458 141.935 118.219 141.935Z" fill="var(--fill-0, #252A09)" stroke="var(--stroke-0, #72811E)" stroke-width="3"/>
<path id="Vector_4" d="M174.674 131.935C177.435 131.935 179.674 129.696 179.674 126.935C179.674 124.173 177.435 121.935 174.674 121.935C171.912 121.935 169.674 124.173 169.674 126.935C169.674 129.696 171.912 131.935 174.674 131.935Z" fill="var(--fill-0, #252A09)" stroke="var(--stroke-0, #72811E)" stroke-width="3"/>
<path id="Vector_5" d="M231.128 116.089C233.89 116.089 236.128 113.851 236.128 111.089C236.128 108.328 233.89 106.089 231.128 106.089C228.367 106.089 226.128 108.328 226.128 111.089C226.128 113.851 228.367 116.089 231.128 116.089Z" fill="var(--fill-0, #252A09)" stroke="var(--stroke-0, #72811E)" stroke-width="3"/>
<path id="Vector_6" d="M287.583 97.4442C290.344 97.4442 292.583 95.2057 292.583 92.4442C292.583 89.6828 290.344 87.4442 287.583 87.4442C284.821 87.4442 282.583 89.6828 282.583 92.4442C282.583 95.2057 284.821 97.4442 287.583 97.4442Z" fill="var(--fill-0, #252A09)" stroke="var(--stroke-0, #72811E)" stroke-width="3"/>
<path id="Vector_7" d="M344.037 75.9412C346.799 75.9412 349.037 73.7027 349.037 70.9412C349.037 68.1798 346.799 65.9412 344.037 65.9412C341.276 65.9412 339.037 68.1798 339.037 70.9412C339.037 73.7027 341.276 75.9412 344.037 75.9412Z" fill="var(--fill-0, #252A09)" stroke="var(--stroke-0, #72811E)" stroke-width="3"/>
<path id="Vector_8" d="M400.492 58.1733C403.253 58.1733 405.492 55.9348 405.492 53.1733C405.492 50.4119 403.253 48.1733 400.492 48.1733C397.73 48.1733 395.492 50.4119 395.492 53.1733C395.492 55.9348 397.73 58.1733 400.492 58.1733Z" fill="var(--fill-0, #252A09)" stroke="var(--stroke-0, #72811E)" stroke-width="3"/>
<path id="Vector_9" d="M456.946 43.9726C459.708 43.9726 461.946 41.734 461.946 38.9726C461.946 36.2112 459.708 33.9726 456.946 33.9726C454.185 33.9726 451.946 36.2112 451.946 38.9726C451.946 41.734 454.185 43.9726 456.946 43.9726Z" fill="var(--fill-0, #252A09)" stroke="var(--stroke-0, #72811E)" stroke-width="3"/>
<path id="Vector_10" d="M513.401 30.6602C516.162 30.6602 518.401 28.4216 518.401 25.6602C518.401 22.8987 516.162 20.6602 513.401 20.6602C510.639 20.6602 508.401 22.8987 508.401 25.6602C508.401 28.4216 510.639 30.6602 513.401 30.6602Z" fill="var(--fill-0, #252A09)" stroke="var(--stroke-0, #72811E)" stroke-width="3"/>
<path id="Vector_11" d="M569.855 19.8384C572.617 19.8384 574.855 17.5998 574.855 14.8384C574.855 12.0769 572.617 9.83837 569.855 9.83837C567.094 9.83837 564.855 12.0769 564.855 14.8384C564.855 17.5998 567.094 19.8384 569.855 19.8384Z" fill="var(--fill-0, #252A09)" stroke="var(--stroke-0, #72811E)" stroke-width="3"/>
<path id="Vector_12" d="M626.31 12C629.071 12 631.31 9.76142 631.31 7C631.31 4.23858 629.071 2 626.31 2C623.549 2 621.31 4.23858 621.31 7C621.31 9.76142 623.549 12 626.31 12Z" fill="var(--fill-0, #252A09)" stroke="var(--stroke-0, #72811E)" stroke-width="3"/>
</g>
</svg>
