<svg width="20" height="20" viewBox="0 0 20 20" fill="none" xmlns="http://www.w3.org/2000/svg">
<path d="M18.3333 15.8333V18.3333H1.66663V15.8333C1.66663 15.375 2.04163 15 2.49996 15H17.5C17.9583 15 18.3333 15.375 18.3333 15.8333Z" fill="white" stroke="white" stroke-width="1.5" stroke-miterlimit="10" stroke-linecap="round" stroke-linejoin="round"/>
<path d="M5.83329 9.1665H4.16663V14.9998H5.83329V9.1665Z" fill="white"/>
<path d="M9.16667 9.1665H7.5V14.9998H9.16667V9.1665Z" fill="white"/>
<path d="M12.5 9.1665H10.8334V14.9998H12.5V9.1665Z" fill="white"/>
<path d="M15.8333 9.1665H14.1666V14.9998H15.8333V9.1665Z" fill="white"/>
<path d="M19.1667 18.9585H0.833374C0.491707 18.9585 0.208374 18.6752 0.208374 18.3335C0.208374 17.9918 0.491707 17.7085 0.833374 17.7085H19.1667C19.5084 17.7085 19.7917 17.9918 19.7917 18.3335C19.7917 18.6752 19.5084 18.9585 19.1667 18.9585Z" fill="white"/>
<path d="M17.8083 4.7917L10.3083 1.7917C10.1416 1.72503 9.85829 1.72503 9.69163 1.7917L2.19163 4.7917C1.89996 4.90837 1.66663 5.25003 1.66663 5.5667V8.33337C1.66663 8.7917 2.04163 9.1667 2.49996 9.1667H17.5C17.9583 9.1667 18.3333 8.7917 18.3333 8.33337V5.5667C18.3333 5.25003 18.1 4.90837 17.8083 4.7917ZM9.99996 7.08337C9.30829 7.08337 8.74996 6.52503 8.74996 5.83337C8.74996 5.1417 9.30829 4.58337 9.99996 4.58337C10.6916 4.58337 11.25 5.1417 11.25 5.83337C11.25 6.52503 10.6916 7.08337 9.99996 7.08337Z" fill="white"/>
</svg>
