<svg preserveAspectRatio="none" width="100%" height="100%" overflow="visible" style="display: block;" viewBox="0 0 20 20" fill="none" xmlns="http://www.w3.org/2000/svg">
<g id="copy">
<path id="Vector" d="M13.3333 10.75V14.25C13.3333 17.1667 12.1667 18.3333 9.25 18.3333H5.75C2.83333 18.3333 1.66667 17.1667 1.66667 14.25V10.75C1.66667 7.83333 2.83333 6.66667 5.75 6.66667H9.25C12.1667 6.66667 13.3333 7.83333 13.3333 10.75Z" fill="var(--fill-0, #BAD133)"/>
<path id="Vector_2" d="M14.2501 1.66667H10.7501C8.3844 1.66667 7.17539 2.43969 6.80273 4.28289C6.65557 5.01071 7.28179 5.625 8.02434 5.625H9.25013C12.7501 5.625 14.3751 7.25 14.3751 10.75V11.9758C14.3751 12.7183 14.9894 13.3446 15.7172 13.1974C17.5604 12.8247 18.3335 11.6157 18.3335 9.25V5.75C18.3335 2.83333 17.1668 1.66667 14.2501 1.66667Z" fill="var(--fill-0, #BAD133)"/>
<g id="Vector_3" opacity="0">
</g>
</g>
</svg>
