<svg preserveAspectRatio="none" width="100%" height="100%" overflow="visible" style="display: block;" viewBox="0 0 20 20" fill="none" xmlns="http://www.w3.org/2000/svg">
<g id="warning-2">
<path id="Vector" d="M10 6.45833V10.8333" stroke="var(--stroke-0, #F8FAEA)" stroke-width="1.5" stroke-linecap="round" stroke-linejoin="round"/>
<path id="Vector_2" d="M17.5667 7.15003V12.85C17.5667 13.7833 17.0667 14.65 16.2583 15.125L11.3083 17.9834C10.5 18.45 9.49999 18.45 8.68332 17.9834L3.73332 15.125C2.92498 14.6584 2.42498 13.7917 2.42498 12.85V7.15003C2.42498 6.2167 2.92498 5.34999 3.73332 4.87499L8.68332 2.01667C9.49165 1.55 10.4917 1.55 11.3083 2.01667L16.2583 4.87499C17.0667 5.34999 17.5667 6.20836 17.5667 7.15003Z" stroke="var(--stroke-0, #F8FAEA)" stroke-width="1.5" stroke-linecap="round" stroke-linejoin="round"/>
<path id="Vector_3" opacity="0" d="M19.5 0.5V19.5H0.5V0.5H19.5Z" stroke="var(--stroke-0, #F8FAEA)"/>
<path id="Vector_4" d="M10 13.5V13.5833" stroke="var(--stroke-0, #F8FAEA)" stroke-width="2" stroke-linecap="round" stroke-linejoin="round"/>
</g>
</svg>
