<svg width="153" height="153" viewBox="0 0 153 153" fill="none" xmlns="http://www.w3.org/2000/svg">
<path d="M0.25 76.25C0.25 34.2764 34.2764 0.25 76.25 0.25C118.224 0.25 152.25 34.2764 152.25 76.25C152.25 118.224 118.224 152.25 76.25 152.25C34.2764 152.25 0.25 118.224 0.25 76.25Z" fill="#0A0A0A"/>
<path d="M76.25 152.25V152C34.4144 152 0.5 118.086 0.5 76.25H0.25H0C0 118.362 34.1383 152.5 76.25 152.5V152.25ZM152.25 76.25H152C152 118.086 118.086 152 76.25 152V152.25V152.5C118.362 152.5 152.5 118.362 152.5 76.25H152.25ZM76.25 0.25V0.5C118.086 0.5 152 34.4144 152 76.25H152.25H152.5C152.5 34.1383 118.362 0 76.25 0V0.25ZM76.25 0.25V0C34.1383 0 0 34.1383 0 76.25H0.25H0.5C0.5 34.4144 34.4144 0.5 76.25 0.5V0.25Z" fill="#313131"/>
<path d="M106.25 58.2502V65.5102C106.25 70.2502 103.25 73.2502 98.51 73.2502H88.25V52.2802C88.25 48.9502 90.98 46.2202 94.31 46.2502C97.58 46.2802 100.58 47.6002 102.74 49.7602C104.9 51.9502 106.25 54.9502 106.25 58.2502Z" fill="#F7F7F7"/>
<path opacity="0.4" d="M46.25 61.25V103.25C46.25 105.74 49.07 107.15 51.05 105.65L56.18 101.81C57.38 100.91 59.06 101.03 60.14 102.11L65.12 107.12C66.29 108.29 68.21 108.29 69.38 107.12L74.42 102.08C75.47 101.03 77.15 100.91 78.32 101.81L83.45 105.65C85.43 107.12 88.25 105.71 88.25 103.25V52.25C88.25 48.95 90.95 46.25 94.25 46.25H61.25H58.25C49.25 46.25 46.25 51.62 46.25 58.25V61.25Z" fill="#F7F7F7"/>
<path d="M76.25 77.0298H67.25C66.02 77.0298 65 78.0498 65 79.2798C65 80.5098 66.02 81.5298 67.25 81.5298H76.25C77.48 81.5298 78.5 80.5098 78.5 79.2798C78.5 78.0498 77.48 77.0298 76.25 77.0298Z" fill="#F7F7F7"/>
<path d="M67.25 69.5298H76.25C77.48 69.5298 78.5 68.5098 78.5 67.2798C78.5 66.0498 77.48 65.0298 76.25 65.0298H67.25C66.02 65.0298 65 66.0498 65 67.2798C65 68.5098 66.02 69.5298 67.25 69.5298Z" fill="#F7F7F7"/>
<path d="M58.1602 64.2798C56.4802 64.2798 55.1602 65.6298 55.1602 67.2798C55.1602 68.9298 56.5102 70.2798 58.1602 70.2798C59.8102 70.2798 61.1602 68.9298 61.1602 67.2798C61.1602 65.6298 59.8102 64.2798 58.1602 64.2798Z" fill="#F7F7F7"/>
<path d="M58.1602 76.2798C56.4802 76.2798 55.1602 77.6298 55.1602 79.2798C55.1602 80.9298 56.5102 82.2798 58.1602 82.2798C59.8102 82.2798 61.1602 80.9298 61.1602 79.2798C61.1602 77.6298 59.8102 76.2798 58.1602 76.2798Z" fill="#F7F7F7"/>
<path d="M46.2498 32.9165C38.9032 32.9165 32.9165 38.9032 32.9165 46.2498C32.9165 53.5965 38.9032 59.5832 46.2498 59.5832C53.5965 59.5832 59.5832 53.5965 59.5832 46.2498C59.5832 38.9032 53.5965 32.9165 46.2498 32.9165ZM50.7298 49.3165C51.1165 49.7032 51.1165 50.3432 50.7298 50.7298C50.5298 50.9298 50.2765 51.0232 50.0232 51.0232C49.7698 51.0232 49.5165 50.9298 49.3165 50.7298L46.2498 47.6632L43.1832 50.7298C42.9832 50.9298 42.7298 51.0232 42.4765 51.0232C42.2232 51.0232 41.9698 50.9298 41.7698 50.7298C41.3832 50.3432 41.3832 49.7032 41.7698 49.3165L44.8365 46.2498L41.7698 43.1832C41.3832 42.7965 41.3832 42.1565 41.7698 41.7698C42.1565 41.3832 42.7965 41.3832 43.1832 41.7698L46.2498 44.8365L49.3165 41.7698C49.7032 41.3832 50.3432 41.3832 50.7298 41.7698C51.1165 42.1565 51.1165 42.7965 50.7298 43.1832L47.6632 46.2498L50.7298 49.3165Z" fill="#F04438"/>
</svg>
