<svg preserveAspectRatio="none" width="100%" height="100%" overflow="visible" style="display: block;" viewBox="0 0 60 60" fill="none" xmlns="http://www.w3.org/2000/svg">
<g id="Group">
<path id="Vector" d="M59.9846 30.0024V30.0891H50.1983V30.0024C50.1983 29.4917 50.179 28.9907 50.1357 28.4945C49.4373 18.855 41.9627 11.0895 32.4509 9.94296H14.9733C16.8997 17.776 21.0657 24.7274 26.739 30.0843H14.877C10.4991 24.2216 7.3542 17.3809 5.86121 9.94296C5.21585 6.72979 4.87873 3.40101 4.87873 -3.62439e-05H29.9851C37.739 -3.62439e-05 44.809 2.94336 50.1308 7.77034C50.887 8.45922 51.6094 9.18663 52.2885 9.94296C57.0708 15.2565 59.9798 22.285 59.9798 30.0024H59.9846Z" fill="var(--fill-0, #BAD133)"/>
<path id="Vector_2" d="M55.1011 60H29.9899C22.2408 60 15.1804 57.0566 9.85378 52.2344C9.10246 51.5407 8.38005 50.8181 7.69616 50.0618C2.92822 44.7627 0.0192931 37.768 2.87232e-05 30.0891H9.78635C9.78635 30.5709 9.80562 31.043 9.84896 31.5102C10.5569 41.1738 18.0508 48.9346 27.5819 50.0618H45.0162C43.1042 42.3107 39.0153 35.4267 33.4334 30.0891H45.2281C49.5529 35.9085 52.6352 42.6961 54.1138 50.0618C54.7591 53.2702 55.0963 56.5941 55.0963 60H55.1011Z" fill="var(--fill-0, #BAD133)"/>
</g>
</svg>
