<svg preserveAspectRatio="none" width="100%" height="100%" overflow="visible" style="display: block;" viewBox="0 0 169 41" fill="none" xmlns="http://www.w3.org/2000/svg">
<g id="Group">
<path id="Vector" d="M6.85829 38.8419C4.76329 37.9458 3.10173 36.6548 1.88326 34.9687C0.664784 33.2826 0.0338726 31.2931 0.000159848 28.9952H8.06713C8.17309 30.5368 8.72213 31.7556 9.70943 32.6516C10.6967 33.5476 12.0501 33.9956 13.7694 33.9956C15.4887 33.9956 16.9047 33.5765 17.9113 32.7335C18.913 31.8904 19.4187 30.7873 19.4187 29.424C19.4187 28.3111 19.0767 27.4007 18.3977 26.6829C17.7186 25.9651 16.8662 25.4015 15.8451 24.9872C14.8241 24.5729 13.4178 24.1201 11.6214 23.6142C9.18447 22.8965 7.20024 22.1883 5.67835 21.4898C4.15165 20.7913 2.84648 19.7315 1.75322 18.3152C0.659966 16.8989 0.110936 15.0056 0.110936 12.6403C0.110936 10.4147 0.664783 8.47815 1.7773 6.83062C2.88982 5.18309 4.45024 3.91613 6.45856 3.03937C8.46687 2.16261 10.7593 1.71942 13.3456 1.71942C17.2177 1.71942 20.3626 2.6588 22.7851 4.54238C25.2076 6.42596 26.5417 9.05141 26.7921 12.4236H18.5085C18.4362 11.1325 17.892 10.0679 16.8662 9.22484C15.8451 8.3818 14.4918 7.96269 12.8062 7.96269C11.3373 7.96269 10.1621 8.33845 9.28561 9.09477C8.40426 9.84628 7.97081 10.9446 7.97081 12.3754C7.97081 13.3774 8.30312 14.2156 8.96293 14.8756C9.62755 15.5404 10.4511 16.0799 11.4384 16.4894C12.4257 16.9037 13.8128 17.3758 15.6043 17.9153C18.0413 18.6331 20.0303 19.3509 21.5763 20.0687C23.1175 20.7865 24.4467 21.8607 25.5544 23.2963C26.6669 24.7319 27.2208 26.6154 27.2208 28.947C27.2208 30.9559 26.7006 32.8202 25.6604 34.54C24.6201 36.2598 23.0982 37.6327 21.0899 38.654C19.0816 39.6753 16.6976 40.1859 13.938 40.1859C11.318 40.1859 8.96293 39.7379 6.86311 38.8419H6.85829Z" fill="var(--fill-0, #F8FAEA)"/>
<path id="Vector_2" d="M42.4926 16.1954V30.6137C42.4926 31.6157 42.7334 32.3431 43.2198 32.7911C43.7014 33.2392 44.5202 33.4656 45.6664 33.4656H49.1629V39.8148H44.4287C38.081 39.8148 34.9072 36.7317 34.9072 30.5607V16.1954H31.3578V10.0099H34.9072V2.6394H42.4926V10.0099H49.1629V16.1954H42.4926Z" fill="var(--fill-0, #F8FAEA)"/>
<path id="Vector_3" d="M82.0761 27.1693H60.2929C60.4711 29.3226 61.2224 31.0087 62.5516 32.2275C63.876 33.4463 65.5087 34.0581 67.4448 34.0581C70.2429 34.0581 72.232 32.8586 73.4167 30.4547H81.5367C80.6746 33.3258 79.0275 35.6815 76.5906 37.5314C74.1536 39.3812 71.158 40.3014 67.6085 40.3014C64.7381 40.3014 62.1663 39.6655 59.8883 38.3937C57.6103 37.1219 55.838 35.3202 54.5617 32.9886C53.2903 30.657 52.6497 27.969 52.6497 24.9196C52.6497 21.8702 53.2758 19.1291 54.5328 16.7975C55.785 14.466 57.5429 12.6739 59.8016 11.4166C62.0604 10.1592 64.6611 9.53299 67.5989 9.53299C70.5367 9.53299 72.9688 10.1448 75.2083 11.3636C77.4478 12.5824 79.1864 14.3118 80.4242 16.5567C81.6619 18.8016 82.2784 21.3692 82.2784 24.2789C82.2784 25.3531 82.2061 26.3214 82.0617 27.1837L82.0761 27.1693ZM74.4907 22.1111C74.457 20.1745 73.7539 18.6233 72.3957 17.4575C71.0328 16.2917 69.3664 15.7088 67.3918 15.7088C65.528 15.7088 63.9579 16.2725 62.6865 17.4045C61.415 18.5318 60.6348 20.1022 60.3458 22.1111H74.4907Z" fill="var(--fill-0, #F8FAEA)"/>
<path id="Vector_4" d="M99.0962 10.9202C100.657 10.0242 102.439 9.57621 104.447 9.57621V17.4863H102.458C100.093 17.4863 98.3063 18.0451 97.1071 19.1531C95.9031 20.2659 95.3059 22.2025 95.3059 24.9628V39.8098H87.7735V10.005H95.3059V14.6296C96.2739 13.0495 97.5357 11.8163 99.0962 10.9154V10.9202Z" fill="var(--fill-0, #F8FAEA)"/>
<path id="Vector_5" d="M117.031 -3.19752e-05V39.8105H109.498V-3.19752e-05H117.031Z" fill="var(--fill-0, #F8FAEA)"/>
<path id="Vector_6" d="M131.985 -3.19752e-05V39.8105H124.453V-3.19752e-05H131.985Z" fill="var(--fill-0, #F8FAEA)"/>
<path id="Vector_7" d="M144.892 38.3839C142.595 37.1121 140.794 35.3104 139.488 32.9788C138.178 30.6472 137.523 27.9592 137.523 24.9098C137.523 21.8604 138.198 19.1723 139.541 16.8407C140.885 14.5091 142.725 12.7075 145.056 11.4357C147.387 10.1639 149.987 9.52801 152.853 9.52801C155.719 9.52801 158.319 10.1639 160.65 11.4357C162.981 12.7075 164.816 14.5091 166.165 16.8407C167.508 19.1723 168.183 21.8604 168.183 24.9098C168.183 27.9592 167.494 30.6472 166.112 32.9788C164.73 35.3104 162.866 37.1121 160.52 38.3839C158.17 39.6557 155.545 40.2915 152.641 40.2915C149.737 40.2915 147.189 39.6557 144.897 38.3839H144.892ZM156.484 32.738C157.684 32.0732 158.647 31.0808 159.36 29.7512C160.077 28.4264 160.434 26.8126 160.434 24.9098C160.434 22.0772 159.687 19.8997 158.204 18.3726C156.716 16.8504 154.895 16.0844 152.742 16.0844C150.589 16.0844 148.788 16.8455 147.339 18.3726C145.884 19.8997 145.162 22.0772 145.162 24.9098C145.162 27.7424 145.87 29.9198 147.286 31.4469C148.702 32.974 150.484 33.7352 152.636 33.7352C153.999 33.7352 155.28 33.4028 156.48 32.738H156.484Z" fill="var(--fill-0, #F8FAEA)"/>
</g>
</svg>
