<svg width="20" height="20" viewBox="0 0 20 20" fill="none" xmlns="http://www.w3.org/2000/svg">
<path d="M10.0002 16.6668C9.54183 16.6668 9.14947 16.5036 8.82308 16.1772C8.49669 15.8509 8.3335 15.4585 8.3335 15.0002C8.3335 14.5418 8.49669 14.1495 8.82308 13.8231C9.14947 13.4967 9.54183 13.3335 10.0002 13.3335C10.4585 13.3335 10.8509 13.4967 11.1772 13.8231C11.5036 14.1495 11.6668 14.5418 11.6668 15.0002C11.6668 15.4585 11.5036 15.8509 11.1772 16.1772C10.8509 16.5036 10.4585 16.6668 10.0002 16.6668ZM10.0002 11.6668C9.54183 11.6668 9.14947 11.5036 8.82308 11.1772C8.49669 10.8509 8.3335 10.4585 8.3335 10.0002C8.3335 9.54183 8.49669 9.14947 8.82308 8.82308C9.14947 8.49669 9.54183 8.3335 10.0002 8.3335C10.4585 8.3335 10.8509 8.49669 11.1772 8.82308C11.5036 9.14947 11.6668 9.54183 11.6668 10.0002C11.6668 10.4585 11.5036 10.8509 11.1772 11.1772C10.8509 11.5036 10.4585 11.6668 10.0002 11.6668ZM10.0002 6.66683C9.54183 6.66683 9.14947 6.50363 8.82308 6.17725C8.49669 5.85086 8.3335 5.4585 8.3335 5.00016C8.3335 4.54183 8.49669 4.14947 8.82308 3.82308C9.14947 3.49669 9.54183 3.3335 10.0002 3.3335C10.4585 3.3335 10.8509 3.49669 11.1772 3.82308C11.5036 4.14947 11.6668 4.54183 11.6668 5.00016C11.6668 5.4585 11.5036 5.85086 11.1772 6.17725C10.8509 6.50363 10.4585 6.66683 10.0002 6.66683Z" fill="#A2A2A2"/>
</svg>
