<svg preserveAspectRatio="none" width="100%" height="100%" overflow="visible" style="display: block;" viewBox="0 0 20 20" fill="none" xmlns="http://www.w3.org/2000/svg">
<g id="password-check">
<path id="Vector" d="M9.18333 16.25H6.25C5.73333 16.25 5.275 16.2333 4.86667 16.175C2.675 15.9333 2.08333 14.9 2.08333 12.0833V7.91667C2.08333 5.1 2.675 4.06667 4.86667 3.825C5.275 3.76667 5.73333 3.75 6.25 3.75H9.13333" stroke="var(--stroke-0, #717171)" stroke-width="1.5" stroke-linecap="round" stroke-linejoin="round"/>
<path id="Vector_2" d="M12.5167 3.75H13.75C14.2667 3.75 14.725 3.76667 15.1333 3.825C17.325 4.06667 17.9167 5.1 17.9167 7.91667V12.0833C17.9167 14.9 17.325 15.9333 15.1333 16.175C14.725 16.2333 14.2667 16.25 13.75 16.25H12.5167" stroke="var(--stroke-0, #717171)" stroke-width="1.5" stroke-linecap="round" stroke-linejoin="round"/>
<path id="Vector_3" d="M12.5 1.66667V18.3333" stroke="var(--stroke-0, #717171)" stroke-width="1.5" stroke-linecap="round" stroke-linejoin="round"/>
<path id="Vector_4" d="M9.2454 10H9.25289" stroke="var(--stroke-0, #717171)" stroke-width="2" stroke-linecap="round" stroke-linejoin="round"/>
<path id="Vector_5" d="M5.91207 10H5.91955" stroke="var(--stroke-0, #717171)" stroke-width="2" stroke-linecap="round" stroke-linejoin="round"/>
<g id="Vector_6" opacity="0">
</g>
</g>
</svg>
