<svg width="153" height="153" viewBox="0 0 153 153" fill="none" xmlns="http://www.w3.org/2000/svg">
<path d="M0.25 76.25C0.25 34.2764 34.2764 0.25 76.25 0.25C118.224 0.25 152.25 34.2764 152.25 76.25C152.25 118.224 118.224 152.25 76.25 152.25C34.2764 152.25 0.25 118.224 0.25 76.25Z" fill="#0A0A0A"/>
<path d="M76.25 152.25V152C34.4144 152 0.5 118.086 0.5 76.25H0.25H0C0 118.362 34.1383 152.5 76.25 152.5V152.25ZM152.25 76.25H152C152 118.086 118.086 152 76.25 152V152.25V152.5C118.362 152.5 152.5 118.362 152.5 76.25H152.25ZM76.25 0.25V0.5C118.086 0.5 152 34.4144 152 76.25H152.25H152.5C152.5 34.1383 118.362 0 76.25 0V0.25ZM76.25 0.25V0C34.1383 0 0 34.1383 0 76.25H0.25H0.5C0.5 34.4144 34.4144 0.5 76.25 0.5V0.25Z" fill="#313131"/>
<path d="M106.25 58.2502V65.5102C106.25 70.2502 103.25 73.2502 98.51 73.2502H88.25V52.2802C88.25 48.9502 90.98 46.2202 94.31 46.2502C97.58 46.2802 100.58 47.6002 102.74 49.7602C104.9 51.9502 106.25 54.9502 106.25 58.2502Z" fill="#F7F7F7"/>
<path opacity="0.4" d="M46.25 61.25V103.25C46.25 105.74 49.07 107.15 51.05 105.65L56.18 101.81C57.38 100.91 59.06 101.03 60.14 102.11L65.12 107.12C66.29 108.29 68.21 108.29 69.38 107.12L74.42 102.08C75.47 101.03 77.15 100.91 78.32 101.81L83.45 105.65C85.43 107.12 88.25 105.71 88.25 103.25V52.25C88.25 48.95 90.95 46.25 94.25 46.25H61.25H58.25C49.25 46.25 46.25 51.62 46.25 58.25V61.25Z" fill="#F7F7F7"/>
<path d="M76.25 77.0298H67.25C66.02 77.0298 65 78.0498 65 79.2798C65 80.5098 66.02 81.5298 67.25 81.5298H76.25C77.48 81.5298 78.5 80.5098 78.5 79.2798C78.5 78.0498 77.48 77.0298 76.25 77.0298Z" fill="#F7F7F7"/>
<path d="M67.25 69.5298H76.25C77.48 69.5298 78.5 68.5098 78.5 67.2798C78.5 66.0498 77.48 65.0298 76.25 65.0298H67.25C66.02 65.0298 65 66.0498 65 67.2798C65 68.5098 66.02 69.5298 67.25 69.5298Z" fill="#F7F7F7"/>
<path d="M58.1602 64.2798C56.4802 64.2798 55.1602 65.6298 55.1602 67.2798C55.1602 68.9298 56.5102 70.2798 58.1602 70.2798C59.8102 70.2798 61.1602 68.9298 61.1602 67.2798C61.1602 65.6298 59.8102 64.2798 58.1602 64.2798Z" fill="#F7F7F7"/>
<path d="M58.1602 76.2798C56.4802 76.2798 55.1602 77.6298 55.1602 79.2798C55.1602 80.9298 56.5102 82.2798 58.1602 82.2798C59.8102 82.2798 61.1602 80.9298 61.1602 79.2798C61.1602 77.6298 59.8102 76.2798 58.1602 76.2798Z" fill="#F7F7F7"/>
<path d="M46.2499 36.4497C39.8766 36.4497 34.6899 41.6364 34.6899 48.0097C34.6899 54.383 39.8766 59.583 46.2499 59.583C52.6233 59.583 57.8099 54.3964 57.8099 48.023C57.8099 41.6497 52.6233 36.4497 46.2499 36.4497ZM47.2499 47.583C47.2499 48.1297 46.7966 48.583 46.2499 48.583C45.7033 48.583 45.2499 48.1297 45.2499 47.583V40.9164C45.2499 40.3697 45.7033 39.9164 46.2499 39.9164C46.7966 39.9164 47.2499 40.3697 47.2499 40.9164V47.583Z" fill="#2970FF"/>
<path d="M50.1037 34.8498H42.397C41.8637 34.8498 41.437 34.4232 41.437 33.8898C41.437 33.3565 41.8637 32.9165 42.397 32.9165H50.1037C50.637 32.9165 51.0637 33.3432 51.0637 33.8765C51.0637 34.4098 50.637 34.8498 50.1037 34.8498Z" fill="#2970FF"/>
</svg>
