<svg preserveAspectRatio="none" width="100%" height="100%" overflow="visible" style="display: block;" viewBox="0 0 19 19" fill="none" xmlns="http://www.w3.org/2000/svg">
<path id="Vector" d="M17.6667 9.33333H15.6C15.2358 9.33255 14.8814 9.45109 14.5909 9.67081C14.3005 9.89052 14.09 10.1993 13.9917 10.55L12.0333 17.5167C12.0207 17.5599 11.9944 17.598 11.9583 17.625C11.9223 17.652 11.8784 17.6667 11.8333 17.6667C11.7883 17.6667 11.7444 17.652 11.7083 17.625C11.6723 17.598 11.646 17.5599 11.6333 17.5167L7.03333 1.15C7.02071 1.10673 6.99439 1.06871 6.95833 1.04167C6.92227 1.01462 6.87841 1 6.83333 1C6.78826 1 6.7444 1.01462 6.70833 1.04167C6.67227 1.06871 6.64595 1.10673 6.63333 1.15L4.675 8.11667C4.57705 8.46596 4.36782 8.77376 4.07905 8.99334C3.79029 9.21293 3.43777 9.3323 3.075 9.33333H1" stroke="var(--stroke-0, #F8FAEA)" stroke-width="1.66667" stroke-linecap="round" stroke-linejoin="round"/>
</svg>
