<svg width="20" height="20" viewBox="0 0 20 20" fill="none" xmlns="http://www.w3.org/2000/svg">
<g clip-path="url(#clip0_7292_1910)">
<path d="M20 10C20 15.5228 15.5228 20 10 20C4.47719 20 0 15.5228 0 10C0 10.0023 10 0.00113281 10 0C15.5228 0 20 4.47719 20 10Z" fill="#0052B4"/>
<path d="M9.97324 9.9999H9.99999C9.99999 9.99084 9.99999 9.98217 9.99999 9.97314C9.99109 9.98209 9.98218 9.991 9.97324 9.9999Z" fill="#F0F0F0"/>
<path d="M10 5.21738C10 3.45781 10 2.3048 10 0H9.99832C4.47625 0.000898438 0 4.47766 0 9.99996H5.21738V7.06199L8.15535 9.99996H9.97328C9.98223 9.99105 9.99113 9.98215 10 9.9732C10 9.29949 10 8.69836 10 8.15539L7.06203 5.21738H10Z" fill="#F0F0F0"/>
<path d="M5.05917 1.3042C3.49514 2.19479 2.19491 3.49502 1.30432 5.05904V9.99986H3.91303V3.91295V3.91291H9.99999C9.99999 3.09014 9.99999 2.30631 9.99999 1.3042H5.05917Z" fill="#D80027"/>
<path d="M9.99999 8.77012L6.44713 5.2173H5.21741C5.21741 5.21726 5.21741 5.2173 5.21741 5.2173L9.99995 9.99984H9.99999C9.99999 9.99984 9.99999 9.15199 9.99999 8.77012Z" fill="#D80027"/>
<path d="M6.03104 11.7388L6.57987 12.8863L7.81921 12.5999L7.26421 13.7445L8.26085 14.5349L7.01995 14.8146L7.02343 16.0866L6.03104 15.2908L5.0387 16.0866L5.04218 14.8146L3.80124 14.5349L4.79792 13.7445L4.24284 12.5999L5.48225 12.8863L6.03104 11.7388Z" fill="#F0F0F0"/>
<path d="M14.972 13.9131L15.2464 14.4869L15.8661 14.3436L15.5886 14.9159L16.087 15.3111L15.4665 15.451L15.4682 16.087L14.972 15.6891L14.4759 16.087L14.4776 15.451L13.8571 15.3111L14.3555 14.9159L14.078 14.3436L14.6976 14.4869L14.972 13.9131Z" fill="#F0F0F0"/>
<path d="M12.4192 7.82617L12.6936 8.4L13.3133 8.25672L13.0358 8.82902L13.5341 9.22422L12.9137 9.36406L12.9154 10.0001L12.4192 9.60215L11.9231 10.0001L11.9248 9.36406L11.3043 9.22422L11.8026 8.82902L11.5251 8.25672L12.1448 8.4L12.4192 7.82617Z" fill="#F0F0F0"/>
<path d="M14.972 4.34766L15.2464 4.92148L15.8661 4.77824L15.5886 5.35055L16.0869 5.7457L15.4665 5.88559L15.4682 6.5216L14.972 6.12367L14.4759 6.5216L14.4776 5.88559L13.8571 5.7457L14.3554 5.35055L14.078 4.77824L14.6976 4.92148L14.972 4.34766Z" fill="#F0F0F0"/>
<path d="M17.2019 6.95654L17.4762 7.53037L18.0959 7.38709L17.8184 7.95939L18.3167 8.35459L17.6963 8.49447L17.698 9.13045L17.2019 8.73256L16.7057 9.13045L16.7074 8.49447L16.0869 8.35459L16.5853 7.95939L16.3078 7.38709L16.9274 7.53037L17.2019 6.95654Z" fill="#F0F0F0"/>
<path d="M15.6074 10L15.8232 10.6643H16.5218L15.9566 11.0749L16.1725 11.7391L15.6074 11.3286L15.0423 11.7391L15.2582 11.0749L14.6931 10.6643H15.3916L15.6074 10Z" fill="#F0F0F0"/>
</g>
<defs>
<clipPath id="clip0_7292_1910">
<rect width="20" height="20" fill="white"/>
</clipPath>
</defs>
</svg>
