<svg width="20" height="20" viewBox="0 0 20 20" fill="none" xmlns="http://www.w3.org/2000/svg">
<g clip-path="url(#clip0_7292_2168)">
<path d="M0 9.99996C0 11.2232 0.220039 12.3949 0.621992 13.4782L10 13.913L19.378 13.4782C19.78 12.3949 20 11.2232 20 9.99996C20 8.77676 19.78 7.60504 19.378 6.52172L10 6.08691L0.621992 6.52168C0.220039 7.60504 0 8.77676 0 9.99996H0Z" fill="#FFDA44"/>
<path d="M9.99999 0C5.70034 0 2.03491 2.71375 0.621979 6.52176H19.378C17.9651 2.71375 14.2996 0 9.99999 0Z" fill="#D80027"/>
<path d="M19.378 13.478H0.621979C2.03491 17.286 5.70034 19.9998 9.99999 19.9998C14.2996 19.9998 17.9651 17.286 19.378 13.478Z" fill="#496E2D"/>
<path d="M9.99993 6.52197L10.8632 9.179H13.6573L11.397 10.8213L12.2603 13.4785L9.99993 11.8363L7.73958 13.4785L8.60302 10.8213L6.34274 9.179H9.13665L9.99993 6.52197Z" fill="black"/>
</g>
<defs>
<clipPath id="clip0_7292_2168">
<rect width="20" height="20" fill="white"/>
</clipPath>
</defs>
</svg>
