<svg width="20" height="20" viewBox="0 0 20 20" fill="none" xmlns="http://www.w3.org/2000/svg">
<g clip-path="url(#clip0_7292_2901)">
<path d="M10 20C15.5228 20 20 15.5228 20 10C20 4.47715 15.5228 0 10 0C4.47715 0 0 4.47715 0 10C0 15.5228 4.47715 20 10 20Z" fill="#D80027"/>
<path d="M3.47824 5.21729H16.5217V14.7825H3.47824V5.21729Z" fill="#6DA544"/>
<path d="M11.6104 12.8259C10.0496 12.8259 8.78433 11.5605 8.78433 9.99977C8.78433 8.43898 10.0496 7.17367 11.6104 7.17367C12.0971 7.17367 12.555 7.29672 12.9548 7.51336C12.3276 6.90004 11.47 6.52148 10.5235 6.52148C8.60253 6.52148 7.04523 8.07875 7.04523 9.99973C7.04523 11.9207 8.60253 13.478 10.5235 13.478C11.47 13.478 12.3276 13.0994 12.9548 12.4861C12.555 12.7028 12.0971 12.8259 11.6104 12.8259Z" fill="#F0F0F0"/>
</g>
<defs>
<clipPath id="clip0_7292_2901">
<rect width="20" height="20" fill="white"/>
</clipPath>
</defs>
</svg>
