<svg width="20" height="20" viewBox="0 0 20 20" fill="none" xmlns="http://www.w3.org/2000/svg">
<g clip-path="url(#clip0_7292_2274)">
<path d="M0 10C0 4.47719 4.47719 0 10 0C15.5228 0 20 4.47719 20 10L10 10.8696L0 10Z" fill="#FFDA44"/>
<path d="M1.33813 14.9998C3.06724 17.9888 6.29864 19.9998 10 19.9998C13.7014 19.9998 16.9328 17.9888 18.6619 14.9998L10 14.3477L1.33813 14.9998Z" fill="#D80027"/>
<path d="M18.6619 15C19.5127 13.5291 20 11.8215 20 10H0C0 11.8215 0.487266 13.5291 1.33812 15H18.6619Z" fill="#0052B4"/>
<path d="M10 13.4785C11.921 13.4785 13.4782 11.9212 13.4782 10.0002C13.4782 8.07923 11.921 6.52197 10 6.52197C8.07902 6.52197 6.52176 8.07923 6.52176 10.0002C6.52176 11.9212 8.07902 13.4785 10 13.4785Z" fill="#FFDA44"/>
<path d="M9.99999 12.1741C8.80128 12.1741 7.82608 11.1989 7.82608 10.0002V8.69588C7.82608 7.49717 8.80131 6.52197 9.99999 6.52197C11.1987 6.52197 12.1739 7.49721 12.1739 8.69588V10.0002C12.1739 11.1989 11.1987 12.1741 9.99999 12.1741Z" fill="#338AF3"/>
<path d="M13.4782 4.78266H10.8695C10.8695 4.30242 10.4802 3.91309 9.99995 3.91309C9.51971 3.91309 9.13038 4.30242 9.13038 4.78266H6.52167C6.52167 5.26293 6.93999 5.65223 7.42018 5.65223H7.39124C7.39124 6.1325 7.78053 6.5218 8.26081 6.5218C8.26081 7.00207 8.6501 7.39137 9.13038 7.39137H10.8695C11.3498 7.39137 11.7391 7.00207 11.7391 6.5218C12.2194 6.5218 12.6087 6.1325 12.6087 5.65223H12.5797C13.0599 5.65223 13.4782 5.26289 13.4782 4.78266Z" fill="black"/>
</g>
<defs>
<clipPath id="clip0_7292_2274">
<rect width="20" height="20" fill="white"/>
</clipPath>
</defs>
</svg>
