<svg preserveAspectRatio="none" width="100%" height="100%" overflow="visible" style="display: block;" viewBox="0 0 20 20" fill="none" xmlns="http://www.w3.org/2000/svg">
<g id="bank">
<g id="Vector" opacity="0">
</g>
<path id="Vector_2" d="M18.3333 15.8333V18.3333H1.66667V15.8333C1.66667 15.375 2.04167 15 2.5 15H17.5C17.9583 15 18.3333 15.375 18.3333 15.8333Z" fill="var(--fill-0, white)" stroke="var(--stroke-0, white)" stroke-width="1.5" stroke-miterlimit="10" stroke-linecap="round" stroke-linejoin="round"/>
<path id="Vector_3" d="M5.83333 9.16667H4.16667V15H5.83333V9.16667Z" fill="var(--fill-0, white)"/>
<path id="Vector_4" d="M9.16667 9.16667H7.5V15H9.16667V9.16667Z" fill="var(--fill-0, white)"/>
<path id="Vector_5" d="M12.5 9.16667H10.8333V15H12.5V9.16667Z" fill="var(--fill-0, white)"/>
<path id="Vector_6" d="M15.8333 9.16667H14.1667V15H15.8333V9.16667Z" fill="var(--fill-0, white)"/>
<path id="Vector_7" d="M19.1667 18.9583H0.833333C0.491667 18.9583 0.208333 18.675 0.208333 18.3333C0.208333 17.9917 0.491667 17.7083 0.833333 17.7083H19.1667C19.5083 17.7083 19.7917 17.9917 19.7917 18.3333C19.7917 18.675 19.5083 18.9583 19.1667 18.9583Z" fill="var(--fill-0, white)"/>
<path id="Vector_8" d="M17.8083 4.79167L10.3083 1.79167C10.1417 1.725 9.85833 1.725 9.69167 1.79167L2.19167 4.79167C1.9 4.90833 1.66667 5.25 1.66667 5.56667V8.33333C1.66667 8.79167 2.04167 9.16667 2.5 9.16667H17.5C17.9583 9.16667 18.3333 8.79167 18.3333 8.33333V5.56667C18.3333 5.25 18.1 4.90833 17.8083 4.79167ZM10 7.08333C9.30833 7.08333 8.75 6.525 8.75 5.83333C8.75 5.14167 9.30833 4.58333 10 4.58333C10.6917 4.58333 11.25 5.14167 11.25 5.83333C11.25 6.525 10.6917 7.08333 10 7.08333Z" fill="var(--fill-0, white)"/>
</g>
</svg>
